<svg width="48" height="48" viewBox="0 0 48 48" fill="none" xmlns="http://www.w3.org/2000/svg">
<rect width="48" height="48" rx="8" fill="#F5F5F5"/>
<g clip-path="url(#clip0_29230_8037)">
<g filter="url(#filter0_dd_29230_8037)">
<path d="M23.6074 8.09445C24.3048 7.70086 25.1562 8.61393 24.7856 9.36804C24.5704 9.98276 23.7544 10.1462 23.3376 9.67765C22.896 9.22796 23.04 8.33913 23.6074 8.09445ZM16.1058 8.9696C16.5295 8.78086 17.0658 9.20094 17.0226 9.70068C17.0676 10.2432 16.4546 10.6425 16.0228 10.3847C15.4506 10.1448 15.516 9.13964 16.1058 8.9696ZM31.47 10.3999C30.8079 10.3133 30.7031 9.18674 31.3405 8.9599C31.8349 8.69895 32.2885 9.1883 32.3608 9.69549C32.2572 10.1286 31.9221 10.5251 31.47 10.3999ZM17.8127 12.425C18.521 11.9402 19.5317 12.6622 19.4228 13.5526C19.386 14.4517 18.2826 14.9725 17.66 14.3648C17.0581 13.8874 17.1493 12.7921 17.8127 12.425ZM28.6256 12.9395C28.9416 12.0581 30.2221 12.0314 30.5818 12.8894C30.9373 13.5571 30.5 14.384 29.8666 14.611C29.0276 14.7805 28.2306 13.7989 28.6256 12.9395ZM22.704 14.5609C22.6972 13.8034 23.3348 13.2389 24 13.1873C24.4413 13.283 24.9223 13.4865 25.1116 13.9684C25.4644 14.6332 25.1511 15.5485 24.5136 15.8536C24.2221 16.0304 23.8775 15.9641 23.56 15.9435C23.0748 15.6856 22.6661 15.18 22.704 14.5609ZM11.548 15.6648C12.1951 15.2344 13.068 16.02 12.8231 16.7807C12.6882 17.4387 11.8709 17.7064 11.4037 17.2863C10.905 16.8927 10.984 15.9464 11.548 15.6648ZM35.504 15.6635C36.053 15.2022 36.9589 15.7313 36.8935 16.4815C36.9303 17.1654 36.1471 17.6813 35.6021 17.3291C35.002 17.0371 34.9407 16.0378 35.504 15.6635ZM25.8413 17.0254C26.7472 16.6732 27.8232 17.0946 28.3396 17.9687C29.0207 19.0373 28.6583 20.6647 27.6013 21.2778C26.5061 22.003 24.9069 21.3883 24.5024 20.0647C24.0432 18.8797 24.7122 17.3968 25.8413 17.0254ZM20.5261 17.1419C21.5301 16.629 22.8813 17.0593 23.3663 18.1708C23.937 19.2527 23.4957 20.7592 22.4754 21.3178C21.4538 21.9457 20.0125 21.4697 19.5181 20.3081C18.9637 19.1848 19.456 17.6591 20.5261 17.1419ZM15.204 19.1111C15.2804 18.411 15.8906 17.9554 16.5063 17.9083C17.1696 17.9949 17.6996 18.5525 17.7717 19.279C17.7282 19.9983 17.2146 20.7014 16.5103 20.697C15.7354 20.7693 15.056 19.935 15.204 19.1111ZM30.9237 18.0605C31.7192 17.5594 32.8239 18.2889 32.7885 19.278C32.8431 20.326 31.6205 21.0645 30.8284 20.4498C30.0055 19.9379 30.0696 18.4964 30.9237 18.0605ZM18.3631 21.754C19.2935 21.477 20.3573 21.9516 20.8136 22.8771C21.3135 23.8087 21.1092 25.1029 20.3328 25.7862C19.3372 26.7885 17.5008 26.3861 16.9709 25.0183C16.362 23.7644 17.1016 22.0841 18.3631 21.754ZM28.4445 21.7488C29.349 21.4688 30.4116 21.8461 30.8978 22.7379C31.5407 23.7578 31.2338 25.279 30.2767 25.9365C29.2741 26.7 27.7212 26.2991 27.1695 25.1054C26.5007 23.8706 27.1736 22.1254 28.4445 21.7488ZM12.3789 22.9125C13.1826 22.5835 14.0735 23.5433 13.7479 24.4056C13.549 25.1912 12.526 25.4816 11.9975 24.9024C11.3791 24.3585 11.608 23.1483 12.3789 22.9125ZM34.1629 24.1639C34.1397 23.4432 34.6269 22.8049 35.3098 22.7651C35.8602 22.8595 36.3954 23.34 36.3519 23.9885C36.4023 24.8449 35.4487 25.4271 34.7744 25.0247C34.4584 24.8508 34.2964 24.5 34.1629 24.1639ZM8.42723 23.3355C8.91075 23.1071 9.50883 23.5606 9.39843 24.1417C9.37251 24.7997 8.47491 25.0527 8.14515 24.5029C7.85379 24.1211 8.02819 23.5324 8.42723 23.3355ZM38.9141 23.3223C39.2546 23.06 39.8008 23.2486 39.9357 23.679C40.1645 24.1492 39.745 24.7933 39.256 24.7138C38.5696 24.7815 38.3476 23.6494 38.9141 23.3223ZM20.9893 26.4809C22.2616 26.1228 23.6293 27.2711 23.6373 28.6889C23.7204 30.1216 22.3733 31.3921 21.0709 31.0612C20.0642 30.8858 19.2743 29.8363 19.3069 28.7353C19.3042 27.6823 20.0384 26.7036 20.9893 26.4809ZM26.028 26.478C27.3194 26.0873 28.7279 27.2562 28.7074 28.7067C28.7756 30.113 27.4706 31.3407 26.1954 31.0617C24.9954 30.8938 24.11 29.4669 24.445 28.2067C24.6141 27.3668 25.2624 26.6839 26.028 26.478ZM16.313 27.3507C17.2066 27.1857 18.0444 28.2647 17.682 29.1829C17.4176 30.1615 16.1018 30.4269 15.52 29.6276C14.8376 28.86 15.3471 27.4567 16.313 27.3507ZM31.0898 27.3938C31.8866 27.0326 32.8647 27.7786 32.8034 28.7145C32.8354 29.7448 31.6279 30.4553 30.8487 29.8539C29.9661 29.314 30.1268 27.7251 31.0898 27.3938ZM35.22 31.8773C34.908 31.2479 35.4748 30.4136 36.1205 30.5301C36.442 30.5242 36.6668 30.7983 36.8725 31.0283C36.9148 31.4013 36.9856 31.8463 36.6996 32.1338C36.3111 32.6659 35.4311 32.514 35.22 31.8773ZM11.5453 30.7054C12.1488 30.2706 13.0173 30.919 12.8816 31.6827C12.8095 32.358 12.0234 32.744 11.5056 32.3608C10.95 32.0129 10.9704 31.0224 11.5453 30.7054ZM23.4685 32.119C24.2586 31.7417 25.2652 32.4861 25.1903 33.428C25.2488 34.4686 24.0039 35.1893 23.2314 34.5644C22.3733 34.0278 22.5164 32.4491 23.4685 32.119ZM17.9461 33.5133C18.6191 33.1301 19.5221 33.7919 19.4608 34.607C19.4813 35.2763 18.8778 35.8467 18.2676 35.7478C17.7621 35.736 17.4325 35.2456 17.2704 34.7793C17.2788 34.2711 17.472 33.705 17.9461 33.5133ZM29.1324 33.5251C29.8244 33.0622 30.8079 33.727 30.7424 34.5987C30.7602 35.5097 29.6487 36.0932 29.0044 35.4948C28.3805 35.0257 28.4567 33.8981 29.1324 33.5251ZM31.0776 38.7298C30.7698 38.2257 31.1322 37.6184 31.632 37.5035C32.034 37.5919 32.4589 37.919 32.3744 38.4233C32.3159 39.1057 31.3936 39.3151 31.0776 38.7298ZM15.6359 38.292C15.7584 37.8925 16.0554 37.4955 16.49 37.5994C17.1234 37.648 17.3114 38.6813 16.757 38.9997C16.2584 39.3635 15.68 38.8654 15.6359 38.292ZM23.0856 38.7504C23.2069 38.1594 23.9138 37.8719 24.3797 38.1859C24.6876 38.3289 24.7775 38.7017 24.8565 39.0186C24.8143 39.1836 24.7765 39.3488 24.7394 39.5138C24.5487 39.7585 24.3036 40.0032 23.9861 39.9944C23.3962 40.0692 22.864 39.3474 23.0856 38.7504Z" fill="#3CC8C8"/>
</g>
</g>
<defs>
<filter id="filter0_dd_29230_8037" x="-15" y="-4.00024" width="78" height="78" filterUnits="userSpaceOnUse" color-interpolation-filters="sRGB">
<feFlood flood-opacity="0" result="BackgroundImageFix"/>
<feColorMatrix in="SourceAlpha" type="matrix" values="0 0 0 0 0 0 0 0 0 0 0 0 0 0 0 0 0 0 127 0" result="hardAlpha"/>
<feOffset dy="11"/>
<feGaussianBlur stdDeviation="11.5"/>
<feComposite in2="hardAlpha" operator="out"/>
<feColorMatrix type="matrix" values="0 0 0 0 0.235294 0 0 0 0 0.784314 0 0 0 0 0.784314 0 0 0 0.13 0"/>
<feBlend mode="normal" in2="BackgroundImageFix" result="effect1_dropShadow_29230_8037"/>
<feColorMatrix in="SourceAlpha" type="matrix" values="0 0 0 0 0 0 0 0 0 0 0 0 0 0 0 0 0 0 127 0" result="hardAlpha"/>
<feOffset dy="4"/>
<feGaussianBlur stdDeviation="2"/>
<feComposite in2="hardAlpha" operator="out"/>
<feColorMatrix type="matrix" values="0 0 0 0 0 0 0 0 0 0 0 0 0 0 0 0 0 0 0.12 0"/>
<feBlend mode="normal" in2="effect1_dropShadow_29230_8037" result="effect2_dropShadow_29230_8037"/>
<feBlend mode="normal" in="SourceGraphic" in2="effect2_dropShadow_29230_8037" result="shape"/>
</filter>
<clipPath id="clip0_29230_8037">
<rect width="32" height="32" fill="white" transform="translate(8 8)"/>
</clipPath>
</defs>
</svg>
