<svg width="48" height="48" viewBox="0 0 48 48" fill="none" xmlns="http://www.w3.org/2000/svg">
<rect width="48" height="48" rx="8" fill="#F5F5F5"/>
<path d="M13.6994 36.9173C13.5989 36.8531 13.5675 36.7247 13.6366 36.6254C13.7057 36.532 13.8438 36.5028 13.9505 36.567C14.0133 36.6079 14.0824 36.6488 14.1577 36.6896C14.6726 36.9815 15.1561 37.1275 15.5516 37.1275C15.9095 37.1275 16.2046 36.9991 16.3867 36.748C16.3992 36.7305 16.4118 36.7188 16.4118 36.7071C16.462 36.6254 16.506 36.5437 16.5311 36.4619C16.5813 36.2926 16.575 36.1175 16.4997 35.9599C16.4244 35.7905 16.2674 35.6329 16.0288 35.4986C15.8718 35.4111 15.6709 35.3293 15.4323 35.2651C14.8233 35.1075 14.3775 34.8798 14.1326 34.582C13.8689 34.2492 13.8501 33.8522 14.1326 33.3677C14.321 33.0466 14.704 32.8481 15.1937 32.813C15.6144 32.7838 16.123 32.8772 16.6378 33.1225C16.7508 33.175 16.7948 33.3034 16.7383 33.4027C16.6818 33.5078 16.5437 33.5486 16.4369 33.4961C15.9974 33.2859 15.5767 33.21 15.2314 33.2334C14.8986 33.2567 14.6412 33.3793 14.5345 33.572C14.3461 33.8931 14.3461 34.1442 14.5031 34.3368C14.6789 34.5587 15.0493 34.7338 15.5579 34.8681C15.8342 34.9382 16.0665 35.0374 16.2611 35.1483C16.5813 35.3293 16.7948 35.557 16.9078 35.8022C17.0271 36.0533 17.0397 36.3277 16.958 36.5845C16.9204 36.7013 16.8639 36.8239 16.7885 36.9348C16.7697 36.9582 16.7571 36.9815 16.7508 36.9932C16.4809 37.3669 16.0539 37.5537 15.5391 37.5537C15.0619 37.5537 14.5031 37.3902 13.9129 37.0574C13.8564 37.0107 13.781 36.9699 13.6994 36.9173Z" fill="#EA501F"/>
<path d="M17.7109 33.0115C17.7109 32.9006 17.8114 32.813 17.937 32.813C18.0625 32.813 18.163 32.9006 18.163 33.0115V37.3493C18.163 37.4602 18.0625 37.5478 17.937 37.5478C17.8114 37.5478 17.7109 37.4602 17.7109 37.3493V33.0115Z" fill="#EA501F"/>
<path d="M18.1756 35.7148C18.094 35.8023 17.9559 35.8198 17.8554 35.744C17.7612 35.6681 17.7424 35.5396 17.824 35.4462C18.1694 35.055 18.5586 34.8157 18.9416 34.7106C19.2179 34.6347 19.4879 34.6288 19.7202 34.6872C19.9651 34.7514 20.1785 34.8799 20.3292 35.0784C20.4736 35.2652 20.5553 35.5046 20.5553 35.7907V37.3436C20.5553 37.4604 20.4548 37.5538 20.3292 37.5538C20.2037 37.5538 20.1032 37.4604 20.1032 37.3436V35.7907C20.1032 35.5922 20.053 35.4345 19.9651 35.3178C19.8772 35.2068 19.7579 35.1309 19.6072 35.0901C19.4502 35.0492 19.2681 35.055 19.0735 35.1076C18.7721 35.1952 18.4582 35.3937 18.1756 35.7148Z" fill="#EA501F"/>
<path d="M22.7724 34.6462C23.2056 34.6462 23.5949 34.8097 23.8774 35.0724C24.16 35.3352 24.3358 35.6971 24.3358 36.1C24.3358 36.5028 24.16 36.8648 23.8774 37.1275C23.5949 37.3902 23.2056 37.5537 22.7724 37.5537C22.3392 37.5537 21.9499 37.3902 21.6673 37.1275C21.3848 36.8648 21.209 36.5028 21.209 36.1C21.209 35.6971 21.3848 35.3352 21.6673 35.0724C21.9499 34.8097 22.3454 34.6462 22.7724 34.6462ZM23.5635 35.3643C23.3626 35.1775 23.08 35.0608 22.7724 35.0608C22.4647 35.0608 22.1885 35.1775 21.9813 35.3643C21.7803 35.5512 21.6548 35.8139 21.6548 36.1C21.6548 36.386 21.7803 36.6488 21.9813 36.8356C22.1822 37.0224 22.4647 37.1392 22.7724 37.1392C23.08 37.1392 23.3563 37.0224 23.5635 36.8356C23.7644 36.6488 23.89 36.386 23.89 36.1C23.89 35.8139 23.7644 35.5512 23.5635 35.3643Z" fill="#EA501F"/>
<path d="M24.9756 34.8564C24.9756 34.7397 25.076 34.6462 25.2016 34.6462C25.3272 34.6462 25.4277 34.7397 25.4277 34.8564V35.1191C25.4465 35.1016 25.459 35.0841 25.4779 35.0724C25.7604 34.8097 26.1497 34.6462 26.5829 34.6462C27.0162 34.6462 27.4054 34.8097 27.688 35.0724C27.9705 35.3352 28.1463 35.6971 28.1463 36.1C28.1463 36.5028 27.9705 36.8648 27.688 37.1275C27.4054 37.3902 27.0162 37.5537 26.5829 37.5537C26.1497 37.5537 25.7604 37.3902 25.4779 37.1275C25.459 37.11 25.4465 37.0925 25.4277 37.0808V38.9899C25.4277 39.1067 25.3272 39.2001 25.2016 39.2001C25.076 39.2001 24.9756 39.1067 24.9756 38.9899V34.8564ZM27.3678 35.3643C27.1669 35.1775 26.8843 35.0608 26.5767 35.0608C26.269 35.0608 25.9927 35.1775 25.7855 35.3643C25.5846 35.5512 25.459 35.8139 25.459 36.1C25.459 36.386 25.5846 36.6488 25.7855 36.8356C25.9865 37.0224 26.269 37.1392 26.5767 37.1392C26.8843 37.1392 27.1606 37.0224 27.3678 36.8356C27.5687 36.6488 27.6943 36.386 27.6943 36.1C27.6943 35.8139 27.5687 35.5512 27.3678 35.3643Z" fill="#EA501F"/>
<path d="M30.2686 34.6462C30.6517 34.6462 31.0033 34.7864 31.2607 35.0316C31.4742 35.2301 31.5621 35.4286 31.6374 35.6387C31.832 36.2284 31.4616 36.2051 31.3486 36.2051H29.2703C29.2892 36.3452 29.3268 36.4736 29.3708 36.5904C29.4524 36.7714 29.5717 36.9056 29.7224 36.9991C29.8794 37.0925 30.0803 37.1392 30.3126 37.1392C30.5637 37.1392 30.8588 37.075 31.1853 36.9465C31.2984 36.8998 31.4302 36.9524 31.4804 37.0574C31.5307 37.1625 31.4742 37.2851 31.3611 37.3318C30.9844 37.4778 30.6328 37.5479 30.3189 37.5537C29.9987 37.5595 29.7161 37.4895 29.4838 37.3494C29.2515 37.2092 29.0506 37.0166 28.9564 36.748C28.7429 36.1584 28.7366 35.5745 29.2766 35.0316C29.5278 34.7805 29.8856 34.6462 30.2686 34.6462ZM30.9467 35.3293C30.7647 35.1658 30.5261 35.0666 30.2686 35.0666C30.0112 35.0666 29.7726 35.1658 29.5905 35.3293C29.4587 35.4519 29.352 35.6037 29.2955 35.7789H31.2481C31.1791 35.6037 31.0786 35.4519 30.9467 35.3293Z" fill="#EA501F"/>
<path d="M33.6974 34.6462C34.0804 34.6462 34.432 34.7864 34.6894 35.0316C34.9029 35.2301 34.9908 35.4286 35.0661 35.6387C35.2608 36.2284 34.8903 36.2051 34.7773 36.2051H32.699C32.7179 36.3452 32.7556 36.4736 32.7995 36.5904C32.8811 36.7714 33.0004 36.9056 33.1511 36.9991C33.3081 37.0925 33.509 37.1392 33.7413 37.1392C33.9925 37.1392 34.2876 37.075 34.614 36.9465C34.7271 36.8998 34.8589 36.9524 34.9091 37.0574C34.9594 37.1625 34.9029 37.2851 34.7899 37.3318C34.4131 37.4778 34.0615 37.5479 33.7476 37.5537C33.4274 37.5595 33.1448 37.4895 32.9125 37.3494C32.6802 37.2092 32.4793 37.0166 32.3851 36.748C32.1716 36.1584 32.1654 35.5745 32.7053 35.0316C32.9565 34.7805 33.3144 34.6462 33.6974 34.6462ZM34.3755 35.3293C34.1934 35.1658 33.9548 35.0666 33.6974 35.0666C33.4399 35.0666 33.2013 35.1658 33.0193 35.3293C32.8874 35.4519 32.7807 35.6037 32.7242 35.7789H34.6768C34.6078 35.6037 34.5073 35.4519 34.3755 35.3293Z" fill="#EA501F"/>
<path d="M15.2877 15.6661H20.0156C20.16 14.1773 20.6058 12.8403 21.2462 11.807C22.0938 10.4408 23.2993 9.6001 24.6618 9.6001C26.0243 9.6001 27.2235 10.4466 28.0774 11.807C28.7179 12.8345 29.1637 14.1773 29.3081 15.6661H34.0296C34.5885 15.6661 35.0907 16.0922 35.0468 16.6119L34.0987 28.9131C33.9794 30.4544 32.9372 31.336 31.424 31.336H17.8997C16.217 31.336 15.3254 30.2442 15.2249 28.9131L14.2706 16.6177C14.2329 16.0981 14.7289 15.6661 15.2877 15.6661ZM21.196 15.6661H28.1151C27.977 14.3758 27.594 13.2315 27.0477 12.3558C26.4199 11.3341 25.566 10.6977 24.6618 10.6977C23.7514 10.6977 22.9038 11.3341 22.2634 12.3616C21.7171 13.2315 21.3404 14.3816 21.196 15.6661Z" fill="#EA501F"/>
<path d="M21.2276 27.0216C21.0078 26.8814 20.9513 26.607 21.102 26.4027C21.2527 26.1984 21.5478 26.1458 21.7676 26.2859C21.9057 26.3735 22.0501 26.4611 22.2071 26.5487C23.3121 27.1733 24.3293 27.4828 25.1769 27.4828C25.9429 27.4828 26.5645 27.2142 26.96 26.6713C26.9852 26.6304 27.0103 26.607 27.0166 26.5895C27.1296 26.4202 27.2112 26.2392 27.2677 26.0641C27.3807 25.7021 27.3619 25.3285 27.2049 24.9898C27.0354 24.6337 26.7089 24.2892 26.2003 24.0032C25.8613 23.8105 25.4406 23.6412 24.932 23.5128C23.6386 23.1741 22.6843 22.6954 22.1694 22.0532C21.6043 21.3468 21.5604 20.4944 22.1631 19.461C22.565 18.7779 23.3875 18.3517 24.4297 18.2758C25.3276 18.2116 26.4075 18.4101 27.5063 18.9297C27.7449 19.0406 27.8391 19.3092 27.7135 19.5311C27.5879 19.7529 27.3054 19.8405 27.0668 19.7237C26.1313 19.28 25.2397 19.1107 24.4988 19.1632C23.7893 19.2158 23.2493 19.4727 23.0107 19.8814C22.6089 20.5644 22.6152 21.1016 22.9417 21.5102C23.3184 21.9831 24.1032 22.3509 25.1957 22.637C25.7859 22.7946 26.2882 22.9931 26.7026 23.2267C27.387 23.612 27.8453 24.0966 28.0902 24.622C28.3414 25.165 28.3728 25.7371 28.2032 26.2976C28.1279 26.5487 28.0086 26.7997 27.8453 27.0449C27.8077 27.0975 27.7826 27.1383 27.7637 27.1675C27.1798 27.9674 26.2819 28.3644 25.1895 28.3702C24.166 28.3702 22.9731 28.0199 21.7173 27.3076C21.5604 27.2259 21.3971 27.1325 21.2276 27.0216Z" fill="white"/>
</svg>
