<svg width="64" height="64" viewBox="0 0 64 64" fill="none" xmlns="http://www.w3.org/2000/svg">
<circle opacity="0.12" cx="32" cy="32" r="32" fill="#0D0140"/>
<path fill-rule="evenodd" clip-rule="evenodd" d="M44.3639 35.6469C44.9146 35.6882 45.3266 36.1695 45.2853 36.7202L45.0319 40.0655C44.8226 42.8256 42.4933 44.9869 39.7266 44.9869H24.2599C21.4933 44.9869 19.1639 42.8256 18.9546 40.0655L18.7013 36.7202C18.6599 36.1695 19.0733 35.6882 19.6239 35.6469C20.1773 35.6269 20.6546 36.0175 20.6973 36.5695L20.9493 39.9135C21.0799 41.6362 22.5333 42.9869 24.2599 42.9869H39.7266C41.4533 42.9869 42.9079 41.6362 43.0373 39.9135L43.2906 36.5695C43.3333 36.0175 43.8226 35.6255 44.3639 35.6469ZM33.7135 18.6667C35.7174 18.6667 37.3776 20.1684 37.6276 22.1055L40.2537 22.1066C43.0483 22.1066 45.3203 24.3853 45.3203 27.1879V31.7733C45.3203 32.1293 45.131 32.4573 44.8257 32.6359C41.5346 34.5633 37.3655 35.6874 32.993 35.8374L32.9935 38.2355C32.9935 38.7875 32.5455 39.2355 31.9935 39.2355C31.4415 39.2355 30.9935 38.7875 30.9935 38.2355L30.9927 35.8377C26.6246 35.6891 22.4552 34.5647 19.1617 32.6359C18.855 32.4573 18.667 32.1293 18.667 31.7733V27.1746C18.667 24.3799 20.9457 22.1066 23.747 22.1066L26.3594 22.1055C26.6094 20.1684 28.2696 18.6667 30.2735 18.6667H33.7135ZM40.2537 24.1066H23.747C22.0483 24.1066 20.667 25.4826 20.667 27.1746V31.1906C23.8319 32.9103 27.822 33.8528 31.975 33.8546L31.9935 33.8529L32.0083 33.8534L32.6432 33.8468C36.5709 33.7532 40.3178 32.8214 43.3203 31.1906V27.1879C43.3203 25.4879 41.9457 24.1066 40.2537 24.1066ZM33.7135 20.6667H30.2735C29.3757 20.6667 28.6179 21.2778 28.394 22.1058H35.5931C35.3692 21.2778 34.6113 20.6667 33.7135 20.6667Z" fill="#0D0140"/>
</svg>
