<svg width="32" height="32" viewBox="0 0 32 32" fill="none" xmlns="http://www.w3.org/2000/svg">
<path d="M32 16C32 24.8366 24.8366 32 16 32C7.16344 32 0 24.8366 0 16C0 7.16344 7.16344 0 16 0C24.8366 0 32 7.16344 32 16Z" fill="#F5F5F5"/>
<path fill-rule="evenodd" clip-rule="evenodd" d="M16.0688 25.0167C16.7157 25.0167 17.1716 24.5926 17.1716 24.5926C17.1716 24.5926 19.1334 24.5289 19.844 24.5077C20.5544 24.4865 20.9998 24.232 21.0739 23.7865C21.1483 23.3412 21.4027 21.8141 21.4664 21.4219C21.5407 21.0295 21.6254 20.9129 21.88 20.7007C22.1451 20.4993 23.9265 19.0465 24.4038 18.6542C24.9233 18.2512 25.0399 17.4241 24.6582 17.0106C24.6264 16.9787 25.4429 16.0456 24.6582 15.1866C24.5627 15.0699 25.2838 13.8929 24.1387 13.1718C23.8524 12.9914 24.6477 11.5917 22.8342 10.9554C22.7177 10.913 23.0038 9.03604 20.7028 9.03604C20.6604 9.03604 20.0771 7.0001 17.7654 7.79531C17.7654 7.79531 17.0868 7 16.0157 7C14.9553 7 14.2448 7.79531 14.2448 7.79531C11.933 7 11.3498 9.03604 11.3074 9.03604C8.9957 9.03604 9.28202 10.9131 9.17592 10.9554C7.36265 11.5917 8.14729 12.9914 7.86097 13.1718C6.71578 13.8929 7.44743 15.0699 7.34143 15.1866C6.55668 16.0456 7.37331 16.9787 7.35209 17.0106C6.95967 17.4241 7.08699 18.2513 7.59597 18.6542C8.08373 19.0465 9.85467 20.4993 10.1198 20.7007C10.3849 20.9129 10.4698 21.0295 10.5333 21.4219C10.597 21.8141 10.8621 23.3413 10.9257 23.7865C11 24.232 11.4559 24.4865 12.1665 24.5077C12.877 24.5289 14.9555 24.5926 14.9555 24.5926C14.9555 24.5926 15.4114 25.0167 16.0688 25.0167Z" fill="#CC2229"/>
<path fill-rule="evenodd" clip-rule="evenodd" d="M16.0692 24.5608C16.61 24.5608 17.1508 24.0306 17.1508 24.0306C17.1508 24.0306 23.7998 18.495 24.1709 18.1875C24.3938 18.0073 24.3513 17.4346 24.1602 17.5832C24.0437 17.6785 23.3225 18.336 23.2907 18.3148C23.259 18.3042 23.2273 18.1981 23.2697 18.1028C23.2697 18.1028 24.1287 17.0741 24.3194 16.7771C24.6801 16.2151 24.3938 15.6744 24.2451 15.8121C24.1073 15.95 23.4074 16.6499 23.3544 16.7135C23.2907 16.7664 23.1954 16.5756 23.259 16.4907C23.3331 16.406 23.4605 16.2256 24.0119 15.4939C24.5633 14.7623 24.1287 13.4261 23.7892 13.8397C23.7892 13.8397 23.0574 14.7623 23.0044 14.8365C22.9515 14.9107 22.856 14.6986 22.8985 14.6138C22.9409 14.5291 23.068 14.2745 23.4924 13.458C24.0013 12.5036 22.8985 11.2099 22.5909 11.7401C22.5909 11.7401 22.029 12.7369 21.9865 12.8322C21.9334 12.9278 21.7851 12.758 21.817 12.6944C21.8382 12.6201 21.8913 12.4399 22.2516 11.4219C22.6759 10.2342 20.8625 9.34348 20.661 9.8418L20.1839 11.0401C20.1415 11.1568 19.9823 11.0294 19.9717 10.9764C19.9717 10.934 20.0778 10.5734 20.2261 9.64026C20.3959 8.56919 18.0948 7.85877 17.904 8.65407C17.713 9.4176 17.6389 9.97958 17.6177 10.0114C17.5964 10.0432 17.4479 9.97958 17.4055 9.96892C17.3632 9.9477 17.4373 8.54797 17.4373 8.54797C17.4373 8.54797 17.5753 7.7951 16.0801 7.7951C14.5743 7.7951 14.5955 8.53741 14.5955 8.53741C14.5955 8.53741 14.6698 9.93724 14.6273 9.95846C14.5743 9.97968 14.4364 10.0327 14.4152 10.0009C14.394 9.97968 14.3198 9.4177 14.1289 8.64351C13.938 7.85887 11.6263 8.55863 11.8065 9.6297C11.955 10.5629 12.0611 10.9234 12.0504 10.9659C12.0504 11.0189 11.8808 11.1461 11.8383 11.0295C11.7959 10.9235 11.3717 9.83124 11.3717 9.83124C11.1702 9.33282 9.35686 10.2342 9.78106 11.4219C10.131 12.4293 10.1947 12.6096 10.2158 12.6838C10.2477 12.7475 10.0992 12.9171 10.0463 12.8217C9.99317 12.7369 9.43118 11.7295 9.43118 11.7295C9.1343 11.1993 8.03145 12.493 8.52988 13.4474C8.96464 14.264 9.09186 14.5185 9.1343 14.6033C9.17674 14.6882 9.0813 14.9002 9.0283 14.8366C8.96464 14.7624 8.24356 13.8292 8.24356 13.8292C7.90423 13.4157 7.46947 14.7624 8.02089 15.494C8.57232 16.2257 8.69954 16.3954 8.7632 16.4802C8.83742 16.5758 8.74198 16.7559 8.67842 16.7031C8.62532 16.6394 7.92556 15.9395 7.78767 15.8017C7.63923 15.6638 7.34225 16.2046 7.71335 16.7772C7.89367 17.0635 8.7632 18.0923 8.7632 18.0923C8.80564 18.1876 8.7632 18.2937 8.74198 18.3149C8.7101 18.3256 7.98901 17.6679 7.86179 17.5727C7.68147 17.4242 7.63913 17.9968 7.85113 18.1876C8.22234 18.4845 14.9136 24.0307 14.9136 24.0307C14.9136 24.0307 15.539 24.5608 16.0692 24.5608ZM14.0544 23.9138C14.118 23.9669 14.1605 24.0624 14.118 24.0624C13.8105 24.0412 12.432 23.9987 12.0184 23.9775C11.5625 23.9563 11.4352 23.7443 11.3504 23.2775C11.2655 22.811 11.0747 21.6764 11.0535 21.602C11.0428 21.5277 11.1277 21.5384 11.1489 21.5489C11.17 21.5596 13.4499 23.4261 14.0544 23.9138ZM18.031 23.9138C17.9673 23.9669 17.9251 24.0624 17.9673 24.0624C18.2749 24.0412 19.6534 23.9987 20.067 23.9775C20.5336 23.9563 20.6609 23.7443 20.7352 23.2775C20.8199 22.811 21.0216 21.6764 21.0321 21.602C21.0426 21.5277 20.9578 21.5384 20.9366 21.5489C20.926 21.5596 18.6354 23.4261 18.031 23.9138Z" fill="#F6D330"/>
<path fill-rule="evenodd" clip-rule="evenodd" d="M15.4011 18.9723C15.4011 18.9511 15.3798 18.9299 15.3481 18.9299L15.0086 18.9723C14.9768 18.9723 14.9556 18.9933 14.9556 19.0252L15.6025 22.6626C15.6025 22.7155 15.6449 22.7473 15.6979 22.7473C15.7091 22.7475 15.7202 22.7454 15.7306 22.7412C15.7409 22.737 15.7503 22.7308 15.7583 22.7229C15.7662 22.715 15.7724 22.7056 15.7766 22.6952C15.7809 22.6849 15.783 22.6738 15.7828 22.6626L15.4011 18.9723ZM13.8422 19.3645C13.8316 19.3327 13.7998 19.3221 13.7786 19.3221L13.4604 19.4601C13.4286 19.4707 13.4179 19.492 13.4179 19.5237L14.9874 22.8747C14.998 22.9172 15.0511 22.9491 15.0935 22.9384C15.1465 22.9277 15.1677 22.8747 15.1571 22.8323L13.8422 19.3645ZM12.4637 20.0221C12.453 20.0009 12.4213 19.9902 12.4 20.0009L12.1244 20.2128C12.1032 20.2235 12.0925 20.2553 12.1032 20.2765L14.4679 23.1291C14.4891 23.1715 14.5421 23.1927 14.5845 23.161C14.627 23.1397 14.6375 23.0866 14.6163 23.0442L12.4637 20.0221ZM16.6842 18.9618C16.6842 18.9299 16.7054 18.9087 16.7373 18.9087L17.0768 18.9618C17.1086 18.9618 17.1296 18.983 17.1296 19.004L16.4829 22.6521C16.4829 22.6943 16.4404 22.7368 16.3873 22.7368C16.3449 22.7368 16.3025 22.6943 16.3025 22.6521L16.6842 18.9618ZM18.243 19.3433C18.2536 19.3221 18.2748 19.3009 18.3066 19.3114L18.6248 19.4494C18.6567 19.4494 18.6673 19.4813 18.6673 19.5025L17.0979 22.8535C17.0766 22.9066 17.0342 22.9278 16.9918 22.9172C16.9387 22.9065 16.9174 22.8641 16.9281 22.8111L18.243 19.3433ZM19.6111 20.0009C19.6323 19.9796 19.664 19.969 19.6852 19.9902L19.9609 20.2022C19.9821 20.2128 19.9928 20.2446 19.9821 20.2658L17.6175 23.1184C17.5963 23.1609 17.5432 23.1715 17.5008 23.1503C17.4583 23.1291 17.4371 23.0654 17.4689 23.0335L19.6111 20.0009ZM9.48393 16.6075C9.84447 16.9044 10.046 16.9999 10.2792 16.9999C10.4807 16.9999 10.6186 16.8726 10.6186 16.6924C10.6186 16.141 9.45215 15.7273 9.45215 14.8154C9.45215 14.2746 9.91869 13.861 10.5338 13.861C10.7989 13.861 11.0534 13.9352 11.3503 14.0942V14.7941C10.9791 14.582 10.8094 14.5185 10.6186 14.5185C10.4171 14.5185 10.2792 14.6245 10.2792 14.7836C10.2792 15.2289 11.4881 15.7698 11.4881 16.6606C11.4881 17.2651 11.0214 17.7104 10.4065 17.7104C10.1096 17.7104 9.83381 17.6255 9.48383 17.4135V16.6075H9.48393ZM12.1456 13.914H12.9939V15.441H13.9271V13.914H14.7754V17.6573H13.9271V16.0879H12.9939V17.6573H12.1456V13.914ZM15.5389 13.914H17.5113V14.5608H16.3979V15.4305H17.4795V16.0773H16.3979V17.0105H17.5644V17.6573H15.5389V13.914ZM18.1688 13.914H19.0172V16.9893H20.1519V17.6573H18.1688V13.914ZM20.5123 13.914H21.3606V16.9893H22.5589V17.6573H20.5123V13.914Z" fill="#CC2229"/>
</svg>
