<svg width="68" height="76" viewBox="0 0 68 76" fill="none" xmlns="http://www.w3.org/2000/svg">
<rect x="9.45012" y="2.4126" width="48.2539" height="48.2539" rx="8" fill="#F5F5F5"/>
<g filter="url(#filter0_dd_29230_8039)">
<path d="M23.222 39.5252C23.121 39.4606 23.0894 39.3315 23.1589 39.2317C23.2283 39.1378 23.3672 39.1085 23.4745 39.1731C23.5376 39.2141 23.607 39.2552 23.6828 39.2963C24.2003 39.5898 24.6863 39.7365 25.084 39.7365C25.4438 39.7365 25.7404 39.6074 25.9235 39.355C25.9361 39.3374 25.9487 39.3257 25.9487 39.3139C25.9992 39.2317 26.0434 39.1496 26.0687 39.0674C26.1191 38.8972 26.1128 38.7211 26.0371 38.5627C25.9614 38.3925 25.8036 38.234 25.5637 38.099C25.4059 38.011 25.2039 37.9288 24.9641 37.8642C24.3518 37.7058 23.9037 37.4769 23.6575 37.1775C23.3924 36.843 23.3735 36.4439 23.6575 35.9568C23.8469 35.634 24.2319 35.4344 24.7242 35.3992C25.1471 35.3698 25.6584 35.4638 26.176 35.7103C26.2896 35.7631 26.3338 35.8922 26.2769 35.992C26.2201 36.0976 26.0813 36.1387 25.974 36.0859C25.5321 35.8746 25.1092 35.7983 24.7621 35.8218C24.4276 35.8453 24.1688 35.9685 24.0615 36.1622C23.8721 36.485 23.8721 36.7374 24.0299 36.931C24.2066 37.1541 24.579 37.3301 25.0903 37.4651C25.368 37.5356 25.6016 37.6353 25.7972 37.7469C26.1191 37.9288 26.3338 38.1577 26.4474 38.4042C26.5673 38.6566 26.5799 38.9324 26.4979 39.1907C26.46 39.308 26.4032 39.4313 26.3274 39.5428C26.3085 39.5663 26.2959 39.5898 26.2896 39.6015C26.0182 39.9771 25.5889 40.1649 25.0714 40.1649C24.5917 40.1649 24.0299 40.0006 23.4366 39.6661C23.3798 39.6191 23.304 39.578 23.222 39.5252Z" fill="#EA501F"/>
<path d="M27.2547 35.5987C27.2547 35.4872 27.3557 35.3992 27.482 35.3992C27.6082 35.3992 27.7092 35.4872 27.7092 35.5987V39.9595C27.7092 40.071 27.6082 40.159 27.482 40.159C27.3557 40.159 27.2547 40.071 27.2547 39.9595V35.5987Z" fill="#EA501F"/>
<path d="M27.7219 38.3163C27.6398 38.4043 27.501 38.4219 27.4 38.3456C27.3053 38.2693 27.2864 38.1402 27.3684 38.0463C27.7156 37.6531 28.1069 37.4124 28.4919 37.3068C28.7697 37.2305 29.0411 37.2246 29.2746 37.2833C29.5208 37.3479 29.7354 37.477 29.8869 37.6765C30.0321 37.8644 30.1141 38.105 30.1141 38.3926V39.9538C30.1141 40.0712 30.0131 40.1651 29.8869 40.1651C29.7606 40.1651 29.6597 40.0712 29.6597 39.9538V38.3926C29.6597 38.193 29.6092 38.0346 29.5208 37.9172C29.4324 37.8057 29.3125 37.7294 29.161 37.6883C29.0032 37.6472 28.8202 37.6531 28.6245 37.7059C28.3215 37.7939 28.0059 37.9935 27.7219 38.3163Z" fill="#EA501F"/>
<path d="M32.343 37.2421C32.7785 37.2421 33.1698 37.4064 33.4539 37.6706C33.7379 37.9347 33.9146 38.2986 33.9146 38.7035C33.9146 39.1085 33.7379 39.4724 33.4539 39.7365C33.1698 40.0006 32.7785 40.1649 32.343 40.1649C31.9074 40.1649 31.5161 40.0006 31.2321 39.7365C30.948 39.4724 30.7713 39.1085 30.7713 38.7035C30.7713 38.2986 30.948 37.9347 31.2321 37.6706C31.5161 37.4064 31.9137 37.2421 32.343 37.2421ZM33.1383 37.964C32.9363 37.7762 32.6522 37.6588 32.343 37.6588C32.0337 37.6588 31.7559 37.7762 31.5477 37.964C31.3457 38.1518 31.2194 38.4159 31.2194 38.7035C31.2194 38.9911 31.3457 39.2552 31.5477 39.443C31.7496 39.6308 32.0337 39.7482 32.343 39.7482C32.6522 39.7482 32.93 39.6308 33.1383 39.443C33.3402 39.2552 33.4665 38.9911 33.4665 38.7035C33.4665 38.4159 33.3402 38.1518 33.1383 37.964Z" fill="#EA501F"/>
<path d="M34.5578 37.4534C34.5578 37.336 34.6588 37.2421 34.785 37.2421C34.9113 37.2421 35.0123 37.336 35.0123 37.4534V37.7175C35.0312 37.6999 35.0438 37.6823 35.0628 37.6706C35.3468 37.4064 35.7381 37.2421 36.1737 37.2421C36.6092 37.2421 37.0005 37.4064 37.2846 37.6706C37.5686 37.9347 37.7453 38.2986 37.7453 38.7035C37.7453 39.1085 37.5686 39.4724 37.2846 39.7365C37.0005 40.0006 36.6092 40.1649 36.1737 40.1649C35.7381 40.1649 35.3468 40.0006 35.0628 39.7365C35.0438 39.7189 35.0312 39.7013 35.0123 39.6895V41.6088C35.0123 41.7261 34.9113 41.82 34.785 41.82C34.6588 41.82 34.5578 41.7261 34.5578 41.6088V37.4534ZM36.9627 37.964C36.7607 37.7762 36.4766 37.6588 36.1674 37.6588C35.8581 37.6588 35.5803 37.7762 35.3721 37.964C35.1701 38.1518 35.0438 38.4159 35.0438 38.7035C35.0438 38.9911 35.1701 39.2552 35.3721 39.443C35.574 39.6308 35.8581 39.7482 36.1674 39.7482C36.4766 39.7482 36.7544 39.6308 36.9627 39.443C37.1646 39.2552 37.2909 38.9911 37.2909 38.7035C37.2909 38.4159 37.1646 38.1518 36.9627 37.964Z" fill="#EA501F"/>
<path d="M39.8789 37.2421C40.2639 37.2421 40.6174 37.383 40.8762 37.6295C41.0908 37.829 41.1791 38.0286 41.2549 38.2399C41.4505 38.8326 41.0781 38.8092 40.9645 38.8092H38.8753C38.8942 38.95 38.9321 39.0791 38.9763 39.1965C39.0583 39.3785 39.1783 39.5135 39.3297 39.6074C39.4875 39.7013 39.6895 39.7482 39.9231 39.7482C40.1755 39.7482 40.4722 39.6837 40.8004 39.5545C40.914 39.5076 41.0466 39.5604 41.0971 39.6661C41.1476 39.7717 41.0908 39.895 40.9772 39.9419C40.5984 40.0886 40.245 40.1591 39.9294 40.1649C39.6075 40.1708 39.3234 40.1004 39.0899 39.9595C38.8563 39.8187 38.6544 39.625 38.5597 39.355C38.3451 38.7622 38.3388 38.1753 38.8816 37.6295C39.1341 37.3771 39.4939 37.2421 39.8789 37.2421ZM40.5606 37.9288C40.3775 37.7645 40.1377 37.6647 39.8789 37.6647C39.6201 37.6647 39.3802 37.7645 39.1972 37.9288C39.0646 38.052 38.9573 38.2046 38.9005 38.3807H40.8635C40.7941 38.2046 40.6931 38.052 40.5606 37.9288Z" fill="#EA501F"/>
<path d="M43.3257 37.2421C43.7108 37.2421 44.0642 37.383 44.323 37.6295C44.5376 37.829 44.626 38.0286 44.7017 38.2399C44.8974 38.8326 44.525 38.8092 44.4114 38.8092H42.3221C42.3411 38.95 42.3789 39.0791 42.4231 39.1965C42.5052 39.3785 42.6251 39.5135 42.7766 39.6074C42.9344 39.7013 43.1364 39.7482 43.3699 39.7482C43.6224 39.7482 43.919 39.6837 44.2473 39.5545C44.3609 39.5076 44.4934 39.5604 44.5439 39.6661C44.5944 39.7717 44.5376 39.895 44.424 39.9419C44.0453 40.0886 43.6918 40.1591 43.3762 40.1649C43.0543 40.1708 42.7703 40.1004 42.5367 39.9595C42.3032 39.8187 42.1012 39.625 42.0065 39.355C41.7919 38.7622 41.7856 38.1753 42.3284 37.6295C42.5809 37.3771 42.9407 37.2421 43.3257 37.2421ZM44.0074 37.9288C43.8244 37.7645 43.5845 37.6647 43.3257 37.6647C43.0669 37.6647 42.8271 37.7645 42.644 37.9288C42.5115 38.052 42.4042 38.2046 42.3474 38.3807H44.3104C44.241 38.2046 44.14 38.052 44.0074 37.9288Z" fill="#EA501F"/>
<path d="M24.8187 18.1615H29.5716C29.7168 16.6649 30.1649 15.3209 30.8087 14.282C31.6608 12.9086 32.8727 12.0635 34.2424 12.0635C35.6121 12.0635 36.8177 12.9145 37.6761 14.282C38.3199 15.315 38.768 16.6649 38.9132 18.1615H43.6598C44.2215 18.1615 44.7265 18.59 44.6823 19.1123L43.7292 31.4786C43.6093 33.0281 42.5615 33.9143 41.0403 33.9143H27.4445C25.7529 33.9143 24.8566 32.8168 24.7556 31.4786L23.7962 19.1182C23.7583 18.5958 24.2569 18.1615 24.8187 18.1615ZM30.7582 18.1615H37.7139C37.5751 16.8644 37.1901 15.7141 36.6409 14.8337C36.0097 13.8066 35.1513 13.1669 34.2424 13.1669C33.3272 13.1669 32.4751 13.8066 31.8312 14.8396C31.2821 15.7141 30.9034 16.8703 30.7582 18.1615Z" fill="#EA501F"/>
<path d="M30.79 29.5771C30.5691 29.4362 30.5123 29.1604 30.6638 28.955C30.8152 28.7495 31.1119 28.6967 31.3328 28.8376C31.4717 28.9256 31.6169 29.0136 31.7747 29.1017C32.8856 29.7297 33.9081 30.0407 34.7602 30.0407C35.5302 30.0407 36.1551 29.7708 36.5528 29.2249C36.578 29.1839 36.6033 29.1604 36.6096 29.1428C36.7232 28.9726 36.8053 28.7906 36.8621 28.6145C36.9757 28.2507 36.9567 27.875 36.7989 27.5346C36.6285 27.1766 36.3003 26.8303 35.789 26.5427C35.4482 26.3491 35.0253 26.1788 34.514 26.0497C33.2138 25.7093 32.2544 25.228 31.7368 24.5824C31.1687 23.8723 31.1245 23.0154 31.7305 21.9765C32.1344 21.2898 32.9613 20.8614 34.0091 20.7851C34.9117 20.7205 35.9973 20.9201 37.1019 21.4424C37.3418 21.554 37.4364 21.8239 37.3102 22.047C37.184 22.27 36.8999 22.358 36.6601 22.2406C35.7196 21.7946 34.8233 21.6244 34.0785 21.6772C33.3653 21.73 32.8224 21.9883 32.5826 22.3991C32.1786 23.0858 32.1849 23.6258 32.5131 24.0366C32.8919 24.512 33.6809 24.8818 34.7791 25.1694C35.3724 25.3278 35.8774 25.5274 36.294 25.7621C36.982 26.1495 37.4428 26.6366 37.6889 27.1649C37.9414 27.7107 37.973 28.2859 37.8025 28.8493C37.7268 29.1017 37.6069 29.3541 37.4428 29.6006C37.4049 29.6534 37.3796 29.6945 37.3607 29.7238C36.7737 30.5279 35.8711 30.927 34.7728 30.9329C33.744 30.9329 32.5447 30.5807 31.2823 29.8647C31.1245 29.7825 30.9604 29.6886 30.79 29.5771Z" fill="white"/>
</g>
<defs>
<filter id="filter0_dd_29230_8039" x="0" y="0" width="67.8796" height="76" filterUnits="userSpaceOnUse" color-interpolation-filters="sRGB">
<feFlood flood-opacity="0" result="BackgroundImageFix"/>
<feColorMatrix in="SourceAlpha" type="matrix" values="0 0 0 0 0 0 0 0 0 0 0 0 0 0 0 0 0 0 127 0" result="hardAlpha"/>
<feOffset dy="11"/>
<feGaussianBlur stdDeviation="11.5"/>
<feComposite in2="hardAlpha" operator="out"/>
<feColorMatrix type="matrix" values="0 0 0 0 0.917647 0 0 0 0 0.313726 0 0 0 0 0.121569 0 0 0 0.12 0"/>
<feBlend mode="normal" in2="BackgroundImageFix" result="effect1_dropShadow_29230_8039"/>
<feColorMatrix in="SourceAlpha" type="matrix" values="0 0 0 0 0 0 0 0 0 0 0 0 0 0 0 0 0 0 127 0" result="hardAlpha"/>
<feOffset dy="4"/>
<feGaussianBlur stdDeviation="2"/>
<feComposite in2="hardAlpha" operator="out"/>
<feColorMatrix type="matrix" values="0 0 0 0 0.917647 0 0 0 0 0.313726 0 0 0 0 0.121569 0 0 0 0.12 0"/>
<feBlend mode="normal" in2="effect1_dropShadow_29230_8039" result="effect2_dropShadow_29230_8039"/>
<feBlend mode="normal" in="SourceGraphic" in2="effect2_dropShadow_29230_8039" result="shape"/>
</filter>
</defs>
</svg>
