<svg width="48" height="48" viewBox="0 0 48 48" fill="none" xmlns="http://www.w3.org/2000/svg">
<rect opacity="0.12" width="48" height="48" rx="24" fill="#FE970F"/>
<path fill-rule="evenodd" clip-rule="evenodd" d="M31.84 30.1931C31.84 33.4891 27.32 33.8701 23.921 33.8701L23.6778 33.8699C21.5122 33.8646 16 33.7279 16 30.1731C16 26.9444 20.3384 26.5129 23.7115 26.4966L24.1642 26.4963C26.3296 26.5016 31.84 26.6383 31.84 30.1931ZM23.921 27.9961C19.66 27.9961 17.5 28.7281 17.5 30.1731C17.5 31.6311 19.66 32.3701 23.921 32.3701C28.181 32.3701 30.34 31.6381 30.34 30.1931C30.34 28.7351 28.181 27.9961 23.921 27.9961ZM23.921 13.9997C26.849 13.9997 29.23 16.3817 29.23 19.3097C29.23 22.2377 26.849 24.6187 23.921 24.6187H23.889C20.967 24.6097 18.6 22.2267 18.61 19.3067C18.61 16.3817 20.992 13.9997 23.921 13.9997ZM23.921 15.4277C21.78 15.4277 20.038 17.1687 20.038 19.3097C20.031 21.4437 21.76 23.1837 23.892 23.1917L23.921 23.9057V23.1917C26.061 23.1917 27.802 21.4497 27.802 19.3097C27.802 17.1687 26.061 15.4277 23.921 15.4277Z" fill="#FE970F"/>
</svg>
