<svg width="32" height="32" viewBox="0 0 32 32" fill="none" xmlns="http://www.w3.org/2000/svg">
<circle cx="16" cy="16" r="16" fill="#F5F5F5"/>
<path d="M8.27504 25.6879C8.19969 25.6397 8.17615 25.5434 8.22795 25.469C8.27975 25.3989 8.38335 25.377 8.4634 25.4252C8.51049 25.4558 8.56229 25.4865 8.6188 25.5171C9.00494 25.7361 9.36753 25.8455 9.6642 25.8455C9.93262 25.8455 10.1539 25.7492 10.2905 25.5609C10.2999 25.5478 10.3093 25.539 10.3093 25.5303C10.347 25.469 10.38 25.4077 10.3988 25.3464C10.4365 25.2194 10.4318 25.088 10.3753 24.9698C10.3188 24.8428 10.201 24.7246 10.0221 24.6239C9.90436 24.5582 9.75367 24.4969 9.57473 24.4487C9.11795 24.3305 8.78361 24.1597 8.59996 23.9364C8.40218 23.6868 8.38805 23.3891 8.59996 23.0257C8.74123 22.7848 9.02848 22.6359 9.39579 22.6097C9.71129 22.5878 10.0927 22.6578 10.4789 22.8417C10.5636 22.8812 10.5966 22.9775 10.5542 23.0519C10.5118 23.1307 10.4082 23.1614 10.3282 23.122C9.99854 22.9644 9.68304 22.9074 9.42404 22.9249C9.17446 22.9425 8.98139 23.0344 8.90134 23.1789C8.76007 23.4197 8.76007 23.608 8.87779 23.7525C9.00965 23.9189 9.28748 24.0503 9.66891 24.151C9.87611 24.2035 10.0503 24.278 10.1963 24.3612C10.4365 24.4969 10.5966 24.6677 10.6814 24.8516C10.7708 25.0399 10.7802 25.2457 10.719 25.4383C10.6908 25.5259 10.6484 25.6178 10.5919 25.701C10.5778 25.7186 10.5683 25.7361 10.5636 25.7448C10.3611 26.0251 10.0409 26.1652 9.65478 26.1652C9.2969 26.1652 8.87779 26.0426 8.43514 25.793C8.39276 25.758 8.33625 25.7273 8.27504 25.6879Z" fill="#EA501F"/>
<path d="M11.2842 22.7586C11.2842 22.6754 11.3595 22.6097 11.4537 22.6097C11.5479 22.6097 11.6232 22.6754 11.6232 22.7586V26.012C11.6232 26.0952 11.5479 26.1608 11.4537 26.1608C11.3595 26.1608 11.2842 26.0952 11.2842 26.012V22.7586Z" fill="#EA501F"/>
<path d="M11.6325 24.7859C11.5712 24.8516 11.4676 24.8647 11.3923 24.8078C11.3217 24.7509 11.3075 24.6545 11.3688 24.5845C11.6277 24.2911 11.9197 24.1116 12.207 24.0327C12.4142 23.9758 12.6166 23.9714 12.7909 24.0152C12.9745 24.0634 13.1346 24.1597 13.2477 24.3086C13.356 24.4487 13.4172 24.6283 13.4172 24.8428V26.0075C13.4172 26.0951 13.3418 26.1652 13.2477 26.1652C13.1535 26.1652 13.0781 26.0951 13.0781 26.0075V24.8428C13.0781 24.6939 13.0405 24.5757 12.9745 24.4881C12.9086 24.4049 12.8191 24.348 12.7061 24.3174C12.5884 24.2867 12.4518 24.2911 12.3058 24.3305C12.0798 24.3962 11.8444 24.5451 11.6325 24.7859Z" fill="#EA501F"/>
<path d="M15.0798 23.9846C15.4047 23.9846 15.6967 24.1072 15.9086 24.3043C16.1205 24.5013 16.2523 24.7728 16.2523 25.0749C16.2523 25.377 16.1205 25.6485 15.9086 25.8456C15.6967 26.0426 15.4047 26.1652 15.0798 26.1652C14.7549 26.1652 14.4629 26.0426 14.251 25.8456C14.0391 25.6485 13.9072 25.377 13.9072 25.0749C13.9072 24.7728 14.0391 24.5013 14.251 24.3043C14.4629 24.1072 14.7596 23.9846 15.0798 23.9846ZM15.6731 24.5232C15.5224 24.3831 15.3105 24.2955 15.0798 24.2955C14.849 24.2955 14.6418 24.3831 14.4864 24.5232C14.3357 24.6633 14.2416 24.8604 14.2416 25.0749C14.2416 25.2895 14.3357 25.4865 14.4864 25.6266C14.6371 25.7667 14.849 25.8543 15.0798 25.8543C15.3105 25.8543 15.5177 25.7667 15.6731 25.6266C15.8238 25.4865 15.918 25.2895 15.918 25.0749C15.918 24.8604 15.8238 24.6633 15.6731 24.5232Z" fill="#EA501F"/>
<path d="M16.7324 24.1423C16.7324 24.0547 16.8078 23.9846 16.9019 23.9846C16.9961 23.9846 17.0715 24.0547 17.0715 24.1423V24.3393C17.0856 24.3262 17.095 24.313 17.1091 24.3043C17.3211 24.1072 17.613 23.9846 17.9379 23.9846C18.2629 23.9846 18.5548 24.1072 18.7667 24.3043C18.9786 24.5013 19.1105 24.7728 19.1105 25.0749C19.1105 25.377 18.9786 25.6485 18.7667 25.8456C18.5548 26.0426 18.2629 26.1652 17.9379 26.1652C17.613 26.1652 17.3211 26.0426 17.1091 25.8456C17.095 25.8324 17.0856 25.8193 17.0715 25.8105V27.2424C17.0715 27.3299 16.9961 27.4 16.9019 27.4C16.8078 27.4 16.7324 27.3299 16.7324 27.2424V24.1423ZM18.5266 24.5232C18.3759 24.3831 18.164 24.2955 17.9332 24.2955C17.7025 24.2955 17.4953 24.3831 17.3399 24.5232C17.1892 24.6633 17.095 24.8604 17.095 25.0749C17.095 25.2895 17.1892 25.4865 17.3399 25.6266C17.4906 25.7667 17.7025 25.8543 17.9332 25.8543C18.164 25.8543 18.3712 25.7667 18.5266 25.6266C18.6772 25.4865 18.7714 25.2895 18.7714 25.0749C18.7714 24.8604 18.6772 24.6633 18.5266 24.5232Z" fill="#EA501F"/>
<path d="M20.7017 23.9846C20.989 23.9846 21.2527 24.0897 21.4458 24.2736C21.6059 24.4225 21.6718 24.5714 21.7283 24.729C21.8743 25.1712 21.5964 25.1537 21.5117 25.1537H19.953C19.9671 25.2588 19.9954 25.3552 20.0283 25.4427C20.0896 25.5785 20.179 25.6792 20.292 25.7492C20.4098 25.8193 20.5605 25.8543 20.7347 25.8543C20.9231 25.8543 21.1444 25.8062 21.3892 25.7098C21.474 25.6748 21.5729 25.7142 21.6106 25.793C21.6482 25.8718 21.6059 25.9638 21.5211 25.9988C21.2386 26.1083 20.9749 26.1608 20.7394 26.1652C20.4992 26.1696 20.2873 26.117 20.1131 26.012C19.9389 25.9069 19.7882 25.7624 19.7175 25.561C19.5574 25.1187 19.5527 24.6808 19.9577 24.2736C20.1461 24.0853 20.4145 23.9846 20.7017 23.9846ZM21.2103 24.4969C21.0737 24.3743 20.8948 24.2999 20.7017 24.2999C20.5087 24.2999 20.3297 24.3743 20.1932 24.4969C20.0943 24.5889 20.0142 24.7027 19.9718 24.8341H21.4363C21.3845 24.7027 21.3092 24.5889 21.2103 24.4969Z" fill="#EA501F"/>
<path d="M23.273 23.9846C23.5603 23.9846 23.824 24.0897 24.017 24.2736C24.1772 24.4225 24.2431 24.5714 24.2996 24.729C24.4456 25.1712 24.1677 25.1537 24.083 25.1537H22.5243C22.5384 25.2588 22.5667 25.3552 22.5996 25.4427C22.6608 25.5785 22.7503 25.6792 22.8633 25.7492C22.9811 25.8193 23.1317 25.8543 23.306 25.8543C23.4943 25.8543 23.7157 25.8062 23.9605 25.7098C24.0453 25.6748 24.1442 25.7142 24.1819 25.793C24.2195 25.8718 24.1772 25.9638 24.0924 25.9988C23.8098 26.1083 23.5461 26.1608 23.3107 26.1652C23.0705 26.1696 22.8586 26.117 22.6844 26.012C22.5102 25.9069 22.3595 25.7624 22.2888 25.561C22.1287 25.1187 22.124 24.6808 22.529 24.2736C22.7174 24.0853 22.9858 23.9846 23.273 23.9846ZM23.7816 24.4969C23.645 24.3743 23.4661 24.2999 23.273 24.2999C23.08 24.2999 22.901 24.3743 22.7644 24.4969C22.6656 24.5889 22.5855 24.7027 22.5431 24.8341H24.0076C23.9558 24.7027 23.8805 24.5889 23.7816 24.4969Z" fill="#EA501F"/>
<path d="M9.46652 9.74948H13.0124C13.1207 8.63291 13.4551 7.63019 13.9354 6.85516C14.5711 5.83054 15.4752 5.20001 16.4971 5.20001C17.519 5.20001 18.4184 5.83492 19.0588 6.85516C19.5391 7.62581 19.8735 8.63291 19.9818 9.74948H23.523C23.9421 9.74948 24.3188 10.0691 24.2858 10.4588L23.5748 19.6847C23.4853 20.8407 22.7036 21.5019 21.5687 21.5019H11.4255C10.1635 21.5019 9.49478 20.6831 9.41943 19.6847L8.70366 10.4632C8.67541 10.0735 9.04742 9.74948 9.46652 9.74948ZM13.8977 9.74948H19.0871C18.9835 8.78179 18.6962 7.92356 18.2865 7.26676C17.8156 6.50049 17.1752 6.02321 16.4971 6.02321C15.8143 6.02321 15.1786 6.50049 14.6983 7.27114C14.2886 7.92356 14.006 8.78617 13.8977 9.74948Z" fill="#EA501F"/>
<path d="M13.9212 18.266C13.7564 18.161 13.714 17.9552 13.827 17.8019C13.94 17.6486 14.1613 17.6092 14.3262 17.7143C14.4298 17.78 14.5381 17.8457 14.6558 17.9114C15.4846 18.3799 16.2474 18.612 16.8832 18.612C17.4577 18.612 17.9239 18.4105 18.2205 18.0033C18.2394 17.9727 18.2582 17.9552 18.2629 17.942C18.3477 17.815 18.4089 17.6793 18.4513 17.5479C18.536 17.2765 18.5219 16.9962 18.4042 16.7423C18.277 16.4752 18.0322 16.2168 17.6507 16.0023C17.3964 15.8578 17.0809 15.7308 16.6995 15.6344C15.7294 15.3805 15.0137 15.0214 14.6275 14.5398C14.2037 14.0099 14.1708 13.3707 14.6228 12.5956C14.9242 12.0833 15.5411 11.7637 16.3228 11.7068C16.9962 11.6586 17.8061 11.8075 18.6302 12.1972C18.8092 12.2804 18.8798 12.4818 18.7856 12.6482C18.6914 12.8146 18.4795 12.8802 18.3006 12.7927C17.5989 12.4599 16.9302 12.3329 16.3746 12.3723C15.8425 12.4117 15.4375 12.6044 15.2585 12.9109C14.9572 13.4232 14.9619 13.826 15.2067 14.1325C15.4893 14.4872 16.0779 14.7631 16.8973 14.9776C17.3399 15.0959 17.7167 15.2447 18.0275 15.4199C18.5407 15.7089 18.8845 16.0723 19.0681 16.4664C19.2565 16.8736 19.2801 17.3027 19.1529 17.7231C19.0964 17.9114 19.0069 18.0997 18.8845 18.2836C18.8562 18.323 18.8374 18.3536 18.8233 18.3755C18.3853 18.9754 17.7119 19.2731 16.8926 19.2775C16.125 19.2775 15.2303 19.0148 14.2885 18.4806C14.1708 18.4193 14.0483 18.3492 13.9212 18.266Z" fill="white"/>
</svg>
