<svg width="24" height="24" viewBox="0 0 24 24" fill="none" xmlns="http://www.w3.org/2000/svg">
<g clip-path="url(#clip0_29223_3049)">
<path d="M12.0003 16C11.7666 16.0004 11.5402 15.9191 11.3603 15.77L5.36028 10.77C5.15606 10.6002 5.02763 10.3563 5.00325 10.0919C4.97888 9.82747 5.06054 9.56419 5.23028 9.35997C5.40001 9.15575 5.64393 9.02733 5.90835 9.00295C6.17278 8.97857 6.43606 9.06023 6.64028 9.22997L12.0003 13.71L17.3603 9.38997C17.4626 9.3069 17.5803 9.24487 17.7066 9.20744C17.8329 9.17001 17.9654 9.15792 18.0965 9.17186C18.2275 9.18579 18.3545 9.22549 18.4701 9.28866C18.5857 9.35184 18.6878 9.43724 18.7703 9.53997C18.8619 9.64279 18.9312 9.76342 18.974 9.89429C19.0168 10.0252 19.0321 10.1635 19.019 10.3005C19.0058 10.4376 18.9645 10.5705 18.8976 10.6908C18.8307 10.8112 18.7397 10.9164 18.6303 11L12.6303 15.83C12.4452 15.9555 12.2234 16.0153 12.0003 16Z" fill="#0D0140"/>
</g>
<defs>
<clipPath id="clip0_29223_3049">
<rect width="24" height="24" fill="white"/>
</clipPath>
</defs>
</svg>
