<svg width="48" height="48" viewBox="0 0 48 48" fill="none" xmlns="http://www.w3.org/2000/svg">
<rect opacity="0.12" width="48" height="48" rx="24" fill="#359766"/>
<path fill-rule="evenodd" clip-rule="evenodd" d="M28.642 15C31.949 15 34.639 17.69 34.639 20.998V28.175C34.639 31.482 31.949 34.173 28.642 34.173H19.998C16.691 34.173 14 31.482 14 28.175V20.998C14 17.69 16.691 15 19.998 15H28.642ZM28.642 16.5H19.998C17.518 16.5 15.5 18.518 15.5 20.998V28.175C15.5 30.655 17.518 32.673 19.998 32.673H28.642C31.122 32.673 33.139 30.655 33.139 28.175V27.895L29.8411 27.8956C27.9441 27.8956 26.4001 26.3526 26.3991 24.4566C26.3991 22.5586 27.9431 21.0146 29.8411 21.0136L33.139 21.013V20.998C33.139 18.518 31.122 16.5 28.642 16.5ZM33.139 22.513L29.8411 22.5136C28.7701 22.5146 27.8991 23.3856 27.8991 24.4556C27.8991 25.5246 28.7711 26.3956 29.8411 26.3956L33.139 26.395V22.513ZM30.2987 23.6436C30.7127 23.6436 31.0487 23.9796 31.0487 24.3936C31.0487 24.8076 30.7127 25.1436 30.2987 25.1436H29.9867C29.5727 25.1436 29.2367 24.8076 29.2367 24.3936C29.2367 23.9796 29.5727 23.6436 29.9867 23.6436H30.2987ZM24.685 19.5381C25.099 19.5381 25.435 19.8741 25.435 20.2881C25.435 20.7021 25.099 21.0381 24.685 21.0381H19.286C18.872 21.0381 18.536 20.7021 18.536 20.2881C18.536 19.8741 18.872 19.5381 19.286 19.5381H24.685Z" fill="#359766"/>
</svg>
