<svg width="32" height="32" viewBox="0 0 32 32" fill="none" xmlns="http://www.w3.org/2000/svg">
<circle cx="16" cy="16" r="16" fill="#F5F5F5"/>
<path d="M15.7056 4.07102C16.2287 3.77583 16.8672 4.46063 16.5893 5.02622C16.4279 5.48726 15.8159 5.60986 15.5033 5.25843C15.1721 4.92115 15.2801 4.25453 15.7056 4.07102ZM10.0794 4.72739C10.3971 4.58583 10.7994 4.90089 10.767 5.2757C10.8007 5.68258 10.341 5.98207 10.0171 5.78869C9.58796 5.60882 9.63704 4.85492 10.0794 4.72739ZM21.6025 5.80012C21.106 5.73518 21.0274 4.89024 21.5054 4.72011C21.8762 4.5244 22.2164 4.89141 22.2707 5.2718C22.1929 5.59661 21.9416 5.89401 21.6025 5.80012ZM11.3595 7.31895C11.8908 6.95531 12.6488 7.49687 12.5671 8.16467C12.5395 8.83896 11.712 9.22961 11.245 8.77376C10.7936 8.41571 10.862 7.59428 11.3595 7.31895ZM19.4693 7.7048C19.7063 7.04376 20.6666 7.02376 20.9364 7.66726C21.203 8.16805 20.8751 8.78818 20.4 8.95844C19.7707 9.08558 19.173 8.34934 19.4693 7.7048ZM15.0281 8.9209C15.0229 8.35272 15.5011 7.92934 16.0001 7.89064C16.331 7.96246 16.6917 8.11506 16.8337 8.47649C17.0983 8.97506 16.8633 9.66156 16.3853 9.89039C16.1666 10.023 15.9081 9.97325 15.6701 9.95779C15.3061 9.76441 14.9996 9.38519 15.0281 8.9209ZM6.66103 9.74883C7.14631 9.42597 7.80103 10.0152 7.61731 10.5857C7.51615 11.0792 6.90319 11.28 6.55279 10.9649C6.17875 10.6697 6.23803 9.96 6.66103 9.74883ZM24.6281 9.74779C25.0398 9.40182 25.7192 9.7987 25.6702 10.3613C25.6978 10.8743 25.1104 11.2612 24.7016 10.997C24.2515 10.7781 24.2056 10.0286 24.6281 9.74779ZM17.381 10.7692C18.0605 10.5051 18.8675 10.8212 19.2547 11.4768C19.7656 12.2782 19.4938 13.4987 18.701 13.9586C17.8796 14.5025 16.6802 14.0414 16.3769 13.0487C16.0325 12.16 16.5342 11.0478 17.381 10.7692ZM13.3946 10.8566C14.1476 10.4719 15.161 10.7947 15.5247 11.6283C15.9528 12.4397 15.6218 13.5696 14.8566 13.9886C14.0904 14.4595 13.0094 14.1025 12.6386 13.2313C12.2228 12.3888 12.5921 11.2445 13.3946 10.8566ZM9.40304 12.3335C9.46028 11.8084 9.91796 11.4668 10.3797 11.4314C10.8772 11.4964 11.2747 11.9145 11.3288 12.4595C11.2962 12.999 10.911 13.5262 10.3827 13.523C9.80156 13.5772 9.29204 12.9514 9.40304 12.3335ZM21.1928 11.5456C21.7895 11.1697 22.618 11.7169 22.5914 12.4587C22.6324 13.2447 21.7154 13.7986 21.1213 13.3375C20.5042 12.9536 20.5523 11.8725 21.1928 11.5456ZM11.7723 14.3157C12.4701 14.1079 13.268 14.4639 13.6103 15.1581C13.9851 15.8568 13.8319 16.8274 13.2497 17.3399C12.5029 18.0916 11.1256 17.7898 10.7282 16.7639C10.2715 15.8235 10.8262 14.5633 11.7723 14.3157ZM19.3334 14.3118C20.0118 14.1018 20.8087 14.3848 21.1734 15.0536C21.6556 15.8186 21.4254 16.9595 20.7076 17.4526C19.9556 18.0252 18.7909 17.7246 18.3771 16.8292C17.8755 15.9031 18.3803 14.5943 19.3334 14.3118ZM7.28419 15.1846C7.88696 14.9378 8.55512 15.6577 8.31092 16.3044C8.16176 16.8937 7.39447 17.1114 6.99811 16.677C6.53431 16.2691 6.70603 15.3614 7.28419 15.1846ZM23.6222 16.1231C23.6048 15.5826 23.9702 15.1039 24.4824 15.074C24.8952 15.1448 25.2966 15.5052 25.264 15.9916C25.3018 16.6339 24.5866 17.0705 24.0809 16.7687C23.8439 16.6383 23.7223 16.3752 23.6222 16.1231ZM4.32042 15.5018C4.68307 15.3305 5.13163 15.6707 5.04883 16.1065C5.02939 16.6 4.35618 16.7898 4.10886 16.3774C3.89034 16.0911 4.02114 15.6495 4.32042 15.5018ZM27.1857 15.492C27.441 15.2952 27.8507 15.4366 27.9519 15.7595C28.1235 16.1121 27.8088 16.5952 27.4421 16.5356C26.9273 16.5864 26.7607 15.7373 27.1857 15.492ZM13.742 17.8609C14.6963 17.5924 15.722 18.4535 15.728 19.5169C15.7903 20.5915 14.78 21.5443 13.8032 21.2961C13.0482 21.1646 12.4557 20.3774 12.4802 19.5517C12.4782 18.762 13.0289 18.0279 13.742 17.8609ZM17.5211 17.8587C18.4896 17.5657 19.546 18.4424 19.5306 19.5303C19.5817 20.585 18.603 21.5057 17.6466 21.2965C16.7466 21.1705 16.0825 20.1004 16.3338 19.1552C16.4606 18.5253 16.9469 18.0131 17.5211 17.8587ZM10.2348 18.5133C10.905 18.3895 11.5333 19.1987 11.2615 19.8874C11.0632 20.6213 10.0764 20.8204 9.64004 20.2209C9.12824 19.6452 9.51032 18.5928 10.2348 18.5133ZM21.3174 18.5456C21.915 18.2747 22.6486 18.8342 22.6026 19.5361C22.6266 20.3089 21.721 20.8417 21.1366 20.3907C20.4746 19.9857 20.5951 18.794 21.3174 18.5456ZM24.4151 21.9082C24.1811 21.4361 24.6061 20.8104 25.0905 20.8978C25.3315 20.8934 25.5001 21.099 25.6545 21.2715C25.6861 21.5512 25.7393 21.885 25.5247 22.1006C25.2334 22.4996 24.5734 22.3857 24.4151 21.9082ZM6.65899 21.0293C7.11163 20.7031 7.76299 21.1895 7.66123 21.7622C7.60711 22.2687 7.01755 22.5582 6.62923 22.2708C6.21247 22.0099 6.22783 21.267 6.65899 21.0293ZM15.6014 22.0895C16.194 21.8065 16.9489 22.3648 16.8927 23.0712C16.9367 23.8517 16.0029 24.3922 15.4236 23.9235C14.78 23.5211 14.8873 22.337 15.6014 22.0895ZM11.4596 23.1352C11.9643 22.8478 12.6416 23.3442 12.5956 23.9555C12.611 24.4574 12.1584 24.8852 11.7007 24.8111C11.3216 24.8022 11.0744 24.4345 10.9528 24.0847C10.9591 23.7035 11.104 23.279 11.4596 23.1352ZM19.8493 23.1441C20.3683 22.7969 21.106 23.2955 21.0569 23.9493C21.0702 24.6325 20.2366 25.0702 19.7533 24.6213C19.2854 24.2695 19.3426 23.4238 19.8493 23.1441ZM21.3083 27.0476C21.0774 26.6695 21.3492 26.2141 21.7241 26.1278C22.0255 26.1942 22.3442 26.4395 22.2809 26.8177C22.237 27.3295 21.5453 27.4865 21.3083 27.0476ZM9.72692 26.7193C9.81884 26.4197 10.0416 26.1219 10.3675 26.1998C10.8426 26.2363 10.9836 27.0112 10.5678 27.25C10.1938 27.5229 9.76004 27.1493 9.72692 26.7193ZM15.3143 27.063C15.4052 26.6198 15.9354 26.4042 16.2848 26.6397C16.5157 26.7469 16.5831 27.0265 16.6424 27.2642C16.6107 27.388 16.5824 27.5119 16.5546 27.6356C16.4115 27.8191 16.2277 28.0026 15.9896 27.996C15.5472 28.0521 15.1481 27.5108 15.3143 27.063Z" fill="#3CC8C8"/>
</svg>
