<svg width="48" height="48" viewBox="0 0 48 48" fill="none" xmlns="http://www.w3.org/2000/svg">
<rect width="48" height="48" rx="8" fill="#F5F5F5"/>
<path fill-rule="evenodd" clip-rule="evenodd" d="M24.1223 39.0297C25.2724 39.0297 26.0829 38.2757 26.0829 38.2757C26.0829 38.2757 29.5706 38.1625 30.8337 38.1248C32.0967 38.0871 32.8886 37.6347 33.0203 36.8427C33.1525 36.051 33.6048 33.3362 33.718 32.639C33.8501 31.9413 34.0006 31.7341 34.4533 31.3569C34.9246 30.9987 38.0916 28.4159 38.9401 27.7186C39.8637 27.002 40.0709 25.5317 39.3924 24.7967C39.3358 24.74 40.7874 23.081 39.3924 21.5539C39.2226 21.3465 40.5045 19.254 38.4688 17.972C37.9598 17.6515 39.3737 15.1631 36.1497 14.0318C35.9425 13.9564 36.4511 10.6196 32.3606 10.6196C32.2851 10.6196 31.2482 7.00018 27.1385 8.41388C27.1385 8.41388 25.9322 7 24.0279 7C22.1427 7 20.8797 8.41388 20.8797 8.41388C16.7699 7 15.733 10.6196 15.6576 10.6196C11.5479 10.6196 12.0569 13.9566 11.8683 14.0318C8.64471 15.1631 10.0396 17.6515 9.53061 17.972C7.49473 19.254 8.79543 21.3465 8.60698 21.5539C7.21188 23.081 8.66366 24.74 8.62594 24.7967C7.92829 25.5317 8.15465 27.0022 9.0595 27.7186C9.92664 28.4159 13.075 30.9987 13.5463 31.3569C14.0176 31.7341 14.1685 31.9413 14.2814 32.639C14.3946 33.3362 14.8659 36.0512 14.9791 36.8427C15.111 37.6347 15.9217 38.0871 17.1848 38.1248C18.448 38.1625 22.1431 38.2757 22.1431 38.2757C22.1431 38.2757 22.9535 39.0297 24.1223 39.0297Z" fill="#CC2229"/>
<path fill-rule="evenodd" clip-rule="evenodd" d="M24.1226 38.2192C25.0839 38.2192 26.0455 37.2766 26.0455 37.2766C26.0455 37.2766 37.8659 27.4356 38.5256 26.8889C38.9218 26.5685 38.8464 25.5504 38.5066 25.8145C38.2994 25.984 37.0173 27.1529 36.9608 27.1152C36.9045 27.0963 36.848 26.9076 36.9235 26.7383C36.9235 26.7383 38.4505 24.9095 38.7897 24.3815C39.4308 23.3824 38.9218 22.4211 38.6575 22.666C38.4126 22.9111 37.1682 24.1553 37.074 24.2685C36.9608 24.3626 36.7913 24.0232 36.9045 23.8723C37.0363 23.7218 37.2626 23.401 38.2429 22.1003C39.2232 20.7996 38.4505 18.4242 37.8471 19.1594C37.8471 19.1594 36.546 20.7996 36.4518 20.9316C36.3578 21.0635 36.1881 20.6864 36.2635 20.5357C36.339 20.385 36.565 19.9325 37.3193 18.4809C38.2242 16.7841 36.2635 14.4842 35.7168 15.4268C35.7168 15.4268 34.7177 17.1989 34.6423 17.3684C34.5479 17.5383 34.2842 17.2365 34.3408 17.1233C34.3786 16.9914 34.473 16.671 35.1136 14.8611C35.8679 12.7497 32.6439 11.1662 32.2858 12.0521L31.4376 14.1824C31.3622 14.3898 31.0791 14.1634 31.0604 14.0692C31.0604 13.9938 31.249 13.3528 31.5127 11.6938C31.8145 9.78966 27.7236 8.52669 27.3844 9.94057C27.0449 11.2979 26.9131 12.297 26.8754 12.3535C26.8377 12.4102 26.5736 12.297 26.4982 12.2781C26.4231 12.2403 26.5548 9.75194 26.5548 9.75194C26.5548 9.75194 26.8002 8.41351 24.1419 8.41351C21.465 8.41351 21.5028 9.73317 21.5028 9.73317C21.5028 9.73317 21.6347 12.2218 21.5593 12.2595C21.465 12.2972 21.2199 12.3914 21.1822 12.3349C21.1445 12.2972 21.0125 11.2981 20.6732 9.92179C20.3338 8.52687 16.2241 9.77089 16.5445 11.675C16.8084 13.334 16.9971 13.975 16.9781 14.0504C16.9781 14.1447 16.6765 14.3708 16.601 14.1636C16.5256 13.9752 15.7714 12.0333 15.7714 12.0333C15.4133 11.1472 12.1895 12.7497 12.9437 14.8611C13.5659 16.652 13.6791 16.9726 13.7166 17.1045C13.7733 17.2177 13.5092 17.5193 13.4152 17.3497C13.3208 17.1989 12.3217 15.408 12.3217 15.408C11.7939 14.4654 9.83326 16.7654 10.7193 18.4621C11.4923 19.9137 11.7184 20.3662 11.7939 20.5169C11.8693 20.6678 11.6997 21.0447 11.6054 20.9317C11.4923 20.7998 10.2103 19.1408 10.2103 19.1408C9.60709 18.4056 8.83418 20.7998 9.81449 22.1005C10.7948 23.4012 11.021 23.703 11.1341 23.8537C11.2661 24.0236 11.0964 24.3438 10.9834 24.2499C10.889 24.1367 9.645 22.8924 9.39988 22.6474C9.13598 22.4023 8.60801 23.3637 9.26775 24.3817C9.58832 24.8907 11.1341 26.7196 11.1341 26.7196C11.2096 26.889 11.1341 27.0777 11.0964 27.1154C11.0397 27.1344 9.75781 25.9652 9.53164 25.7959C9.21107 25.5319 9.1358 26.5499 9.51269 26.889C10.1726 27.4168 22.0683 37.2768 22.0683 37.2768C22.0683 37.2768 23.18 38.2192 24.1226 38.2192ZM20.5407 37.069C20.6539 37.1634 20.7293 37.3331 20.6539 37.3331C20.1071 37.2954 17.6564 37.2199 16.9212 37.1822C16.1106 37.1445 15.8844 36.7676 15.7335 35.9378C15.5826 35.1084 15.2435 33.0913 15.2057 32.9592C15.1868 32.827 15.3377 32.846 15.3754 32.8648C15.413 32.8837 19.4661 36.2019 20.5407 37.069ZM27.6102 37.069C27.4971 37.1634 27.422 37.3331 27.4971 37.3331C28.0438 37.2954 30.4945 37.2199 31.2299 37.1822C32.0593 37.1445 32.2856 36.7676 32.4178 35.9378C32.5683 35.1084 32.9268 33.0913 32.9455 32.9592C32.9641 32.827 32.8134 32.846 32.7757 32.8648C32.7569 32.8837 28.6848 36.2019 27.6102 37.069Z" fill="#F6D330"/>
<path fill-rule="evenodd" clip-rule="evenodd" d="M22.9352 28.2841C22.9352 28.2464 22.8975 28.2087 22.841 28.2087L22.2376 28.2841C22.1811 28.2841 22.1433 28.3215 22.1433 28.3782L23.2933 34.8447C23.2933 34.9387 23.3688 34.9952 23.463 34.9952C23.4829 34.9955 23.5026 34.9918 23.521 34.9844C23.5394 34.9769 23.5562 34.9658 23.5702 34.9518C23.5843 34.9378 23.5954 34.9211 23.6029 34.9027C23.6104 34.8843 23.6141 34.8646 23.6139 34.8447L22.9352 28.2841ZM20.1639 28.9814C20.145 28.9247 20.0885 28.906 20.0508 28.906L19.4851 29.1513C19.4286 29.1702 19.4096 29.2079 19.4096 29.2644L22.1998 35.2218C22.2186 35.2972 22.313 35.3539 22.3885 35.3349C22.4827 35.316 22.5204 35.2218 22.5015 35.1463L20.1639 28.9814ZM17.7133 30.1503C17.6943 30.1126 17.6378 30.0937 17.6001 30.1126L17.11 30.4895C17.0723 30.5085 17.0533 30.565 17.0723 30.6027L21.2762 35.6739C21.3139 35.7494 21.4082 35.7871 21.4836 35.7306C21.5591 35.6929 21.5778 35.5985 21.5401 35.523L17.7133 30.1503ZM25.2164 28.2654C25.2164 28.2087 25.2541 28.171 25.3108 28.171L25.9142 28.2654C25.9709 28.2654 26.0083 28.3031 26.0083 28.3404L24.8585 34.8259C24.8585 34.901 24.783 34.9764 24.6886 34.9764C24.6132 34.9764 24.5377 34.901 24.5377 34.8259L25.2164 28.2654ZM27.9875 28.9437C28.0064 28.906 28.0442 28.8682 28.1007 28.887L28.6663 29.1323C28.723 29.1323 28.7418 29.189 28.7418 29.2267L25.9518 35.184C25.914 35.2784 25.8386 35.3162 25.7631 35.2972C25.6687 35.2783 25.631 35.2028 25.65 35.1086L27.9875 28.9437ZM30.4198 30.1126C30.4575 30.0749 30.5138 30.0559 30.5515 30.0937L31.0416 30.4706C31.0793 30.4895 31.0983 30.546 31.0793 30.5837L26.8756 35.655C26.8379 35.7304 26.7435 35.7494 26.668 35.7116C26.5926 35.6739 26.5548 35.5607 26.6113 35.5041L30.4198 30.1126ZM12.4159 24.08C13.0568 24.6078 13.4151 24.7777 13.8297 24.7777C14.1879 24.7777 14.433 24.5513 14.433 24.2309C14.433 23.2506 12.3594 22.5153 12.3594 20.894C12.3594 19.9326 13.1888 19.1973 14.2823 19.1973C14.7536 19.1973 15.2061 19.3292 15.7339 19.6119V20.8563C15.074 20.4792 14.7723 20.3662 14.433 20.3662C14.0749 20.3662 13.8297 20.5546 13.8297 20.8375C13.8297 21.6292 15.9788 22.5907 15.9788 24.1744C15.9788 25.249 15.1492 26.0407 14.0559 26.0407C13.5281 26.0407 13.0379 25.8898 12.4157 25.5129V24.08H12.4159ZM17.1477 19.2915H18.6558V22.0062H20.3148V19.2915H21.8229V25.9463H20.3148V23.1562H18.6558V25.9463H17.1477V19.2915ZM23.1803 19.2915H26.6868V20.4415H24.7074V21.9875H26.6303V23.1375H24.7074V24.7965H26.7812V25.9463H23.1803V19.2915ZM27.8557 19.2915H29.364V24.7587H31.3811V25.9463H27.8557V19.2915ZM32.0219 19.2915H33.53V24.7587H35.6603V25.9463H32.0219V19.2915Z" fill="#CC2229"/>
</svg>
