<svg width="48" height="48" viewBox="0 0 48 48" fill="none" xmlns="http://www.w3.org/2000/svg">
<rect opacity="0.12" width="48" height="48" rx="24" fill="#7850AD"/>
<path fill-rule="evenodd" clip-rule="evenodd" d="M33.2727 26.7352C33.6857 26.7662 33.9947 27.1272 33.9637 27.5402L33.7737 30.0492C33.6167 32.1192 31.8697 33.7402 29.7947 33.7402H18.1947C16.1197 33.7402 14.3727 32.1192 14.2157 30.0492L14.0257 27.5402C13.9947 27.1272 14.3047 26.7662 14.7177 26.7352C15.1327 26.7202 15.4907 27.0132 15.5227 27.4272L15.7117 29.9352C15.8097 31.2272 16.8997 32.2402 18.1947 32.2402H29.7947C31.0897 32.2402 32.1807 31.2272 32.2777 29.9352L32.4677 27.4272C32.4997 27.0132 32.8667 26.7192 33.2727 26.7352ZM25.2849 14.0001C26.7878 14.0001 28.033 15.1264 28.2205 16.5791L30.19 16.58C32.286 16.58 33.99 18.289 33.99 20.391V23.83C33.99 24.097 33.848 24.343 33.619 24.477C31.1507 25.9225 28.0239 26.7656 24.7445 26.8781L24.7449 28.6767C24.7449 29.0907 24.4089 29.4267 23.9949 29.4267C23.5809 29.4267 23.2449 29.0907 23.2449 28.6767L23.2443 26.8783C19.9682 26.7669 16.8412 25.9236 14.371 24.477C14.141 24.343 14 24.097 14 23.83V20.381C14 18.285 15.709 16.58 17.81 16.58L19.7693 16.5791C19.9568 15.1264 21.202 14.0001 22.7049 14.0001H25.2849ZM30.19 18.08H17.81C16.536 18.08 15.5 19.112 15.5 20.381V23.393C17.8737 24.6827 20.8662 25.3896 23.981 25.391L23.9949 25.3897L24.006 25.3901L24.4822 25.3851C27.428 25.315 30.2381 24.616 32.49 23.393V20.391C32.49 19.116 31.459 18.08 30.19 18.08ZM25.2849 15.5001H22.7049C22.0316 15.5001 21.4632 15.9584 21.2953 16.5794H26.6945C26.5266 15.9584 25.9582 15.5001 25.2849 15.5001Z" fill="#7850AD"/>
</svg>
