<svg width="39" height="12" viewBox="0 0 39 12" fill="none" xmlns="http://www.w3.org/2000/svg">
<path d="M9.61086 6.94369C9.40752 7.13535 9.32366 7.41058 9.37158 7.67411L9.81436 10.2949C9.934 10.9768 9.22797 11.4916 8.61763 11.1685L6.26012 9.9355C6.02069 9.80403 5.73349 9.80403 5.4942 9.9355L3.13669 11.1685C2.53832 11.4916 1.83215 10.9768 1.93996 10.2949L2.39473 7.67411C2.4425 7.41058 2.34681 7.13535 2.15529 6.94369L0.252539 5.089C-0.238158 4.61043 0.0250869 3.77249 0.707301 3.67666L3.34004 3.29391C3.61526 3.25769 3.84271 3.09057 3.96236 2.8393L5.1471 0.457537C5.44628 -0.152512 6.31987 -0.152512 6.61905 0.457537L7.8038 2.8393C7.92358 3.09057 8.15089 3.25769 8.42612 3.29391L11.059 3.67666C11.7291 3.77249 12.0043 4.61043 11.5138 5.089L9.61086 6.94369ZM23.229 6.94369C23.0256 7.13535 22.9418 7.41058 22.9897 7.67411L23.4325 10.2949C23.5521 10.9768 22.8461 11.4916 22.2357 11.1685L19.8782 9.9355C19.6388 9.80403 19.3516 9.80403 19.1123 9.9355L16.7548 11.1685C16.1564 11.4916 15.4503 10.9768 15.5581 10.2949L16.0128 7.67411C16.0606 7.41058 15.9649 7.13535 15.7734 6.94369L13.8706 5.089C13.38 4.61043 13.6432 3.77249 14.3254 3.67666L16.9581 3.29391C17.2334 3.25769 17.4608 3.09057 17.5805 2.8393L18.7652 0.457537C19.0644 -0.152512 19.938 -0.152512 20.2372 0.457537L21.4219 2.8393C21.5417 3.09057 21.769 3.25769 22.0442 3.29391L24.6771 3.67666C25.3472 3.77249 25.6224 4.61043 25.1319 5.089L23.229 6.94369ZM36.8471 6.94369C36.6437 7.13535 36.5599 7.41058 36.6078 7.67411L37.0506 10.2949C37.1702 10.9768 36.4642 11.4916 35.8539 11.1685L33.4963 9.9355C33.2569 9.80403 32.9697 9.80403 32.7304 9.9355L30.3729 11.1685C29.7745 11.4916 29.0684 10.9768 29.1762 10.2949L29.6309 7.67411C29.6787 7.41058 29.583 7.13535 29.3915 6.94369L27.4888 5.089C26.9981 4.61043 27.2613 3.77249 27.9435 3.67666L30.5763 3.29391C30.8515 3.25769 31.0789 3.09057 31.1986 2.8393L32.3833 0.457537C32.6825 -0.152512 33.5561 -0.152512 33.8553 0.457537L35.04 2.8393C35.1598 3.09057 35.3871 3.25769 35.6623 3.29391L38.2952 3.67666C38.9653 3.77249 39.2405 4.61043 38.75 5.089L36.8471 6.94369Z" fill="white"/>
</svg>
