<svg width="78" height="69" viewBox="0 0 78 69" fill="none" xmlns="http://www.w3.org/2000/svg">
<rect x="15" width="48" height="48" rx="8" fill="#F5F5F5"/>
<g filter="url(#filter0_dd_29229_6819)">
<path fill-rule="evenodd" clip-rule="evenodd" d="M23 34.3924L23.7823 31.7317H25.1295L25.4697 32.8687L26.447 31.7264H27.8769L27.1327 34.39L26.0522 34.3937L26.447 33.0196L25.193 34.3937H24.6617L24.2747 32.9237L23.8398 34.3937L23 34.3924ZM32.5166 31.7259L35.8358 31.7317L35.6365 32.5909H34.4969L34.0287 34.3924L32.9782 34.3937L33.415 32.5985H32.2932L32.5166 31.7259ZM41.4192 31.7308V32.3495H41.4209L41.2916 32.8642H42.4295C42.4295 32.8642 42.7059 32.8163 42.7218 32.5641C42.7349 32.341 42.5271 32.3566 42.5271 32.3566L41.4194 32.3526V31.7315L43.1335 31.7306C43.1335 31.7306 43.8672 31.7861 43.7958 32.421C43.7223 33.0555 43.0479 33.2579 43.0479 33.2579C43.0479 33.2579 43.0069 33.2985 43.0388 33.3223C43.0706 33.3457 43.3226 33.3932 43.3544 33.6306C43.3863 33.8685 43.2717 34.0415 43.2717 34.1135C43.2717 34.1842 43.2791 34.3269 43.3694 34.39H42.2861C42.2861 34.39 42.0929 34.3603 42.1094 34.1608C42.1254 33.9635 42.1345 33.7898 42.1345 33.7898C42.1345 33.7898 42.1185 33.5827 41.828 33.6075L41.0359 33.5997L40.8103 34.3926H39.8167L40.5731 31.731H41.4192V31.7308ZM48.9427 31.7308H49.9593L49.4668 33.6612H51.1397L50.9455 34.3946H48.248L48.9427 31.7308ZM54.3901 31.7286L55 34.3937H53.9424L53.8305 33.9318L53.8267 33.9229H52.5453L52.5408 33.9269L52.2314 34.3924L51.3357 34.3937L53.1443 31.7286L53.4948 32.5142L52.9702 33.2909L52.9854 33.2965H53.6651L53.6773 33.2951L53.4948 32.5142L53.1443 31.7286H54.3901ZM30.2467 32.3207C30.5692 32.3207 30.8869 32.4803 30.9371 32.7119C31.0902 33.4527 30.3002 33.77 30.3929 33.7234C29.9383 33.9488 29.2477 33.8765 29.1665 33.4095C29.0896 32.9605 29.4363 32.5184 29.7281 32.413C29.9279 32.341 30.0926 32.3104 30.2467 32.3207L30.2489 32.3138L30.2527 31.6231C30.0438 31.6274 29.8086 31.6532 29.6231 31.6896C28.8266 31.8423 27.8227 32.5659 27.9995 33.482C28.1484 34.2562 29.1986 34.6717 30.3762 34.4441C31.4804 34.2321 32.2033 33.3819 32.048 32.6277C31.8986 31.898 31.0343 31.6231 30.2527 31.6231V32.2204L30.2467 32.3207ZM37.9668 32.3207C38.289 32.3207 38.6077 32.4803 38.655 32.7119C38.8111 33.4527 38.0201 33.77 38.1144 33.7234C37.6592 33.9488 36.9679 33.8765 36.8874 33.4095C36.8094 32.9605 37.1562 32.5184 37.4487 32.413C37.6478 32.341 37.8148 32.3104 37.9668 32.3207L37.969 32.3138L37.9735 31.6231C37.7618 31.6282 37.5508 31.6505 37.3426 31.6896C36.5467 31.8423 35.5413 32.5659 35.7181 33.482C35.8668 34.2562 36.9197 34.6717 38.0952 34.4441C39.2005 34.2321 39.9246 33.3819 39.7686 32.6277C39.6187 31.898 38.7547 31.6231 37.9733 31.6231V32.2204L37.9668 32.3207ZM46.3598 32.3138C46.6819 32.3316 46.9976 32.4803 47.0469 32.7119C47.2009 33.4527 46.4106 33.77 46.5056 33.7234C46.0501 33.9488 45.359 33.8765 45.2781 33.4095C45.2005 32.9605 45.5463 32.5184 45.8395 32.413C46.0793 32.3258 46.173 32.3015 46.3598 32.3138L46.3643 31.6231C46.1525 31.6283 45.9415 31.6506 45.7334 31.6896C44.9388 31.8423 43.9343 32.5659 44.1102 33.482C44.2591 34.2562 45.3111 34.6717 46.4875 34.4441C47.5917 34.2321 48.3158 33.3819 48.1586 32.6277C48.0097 31.898 47.1454 31.6231 46.3643 31.6231V32.2204L46.3598 32.3138ZM39.0119 13C43.5025 13 47.0373 16.6169 47.0373 21.0222C47.0373 25.4537 43.4434 29.0451 39.0119 29.0451C34.5805 29.0451 30.989 25.4537 30.989 21.0222C30.989 16.5908 34.5807 13 39.0119 13ZM38.9941 22.7043L36.7496 15.2583L33.8437 24.7916H34.389C34.389 24.7916 34.7561 23.1332 35.3509 22.1425C35.6757 21.6054 36.1758 21.1656 36.8446 21.1781C37.3159 21.1865 37.7234 21.4447 38.233 22.1558C38.5393 22.5837 39.011 23.672 39.011 23.672C39.011 23.672 39.4828 22.5852 39.7902 22.1558C40.2978 21.4447 40.7058 21.1865 41.1779 21.1781C41.8454 21.1654 42.3474 21.6054 42.6709 22.1434C43.267 23.133 43.6331 24.7914 43.6331 24.7914H44.1795L41.2718 15.2581L39.0273 22.7043L39.0121 22.7179L38.9941 22.7043Z" fill="#0D0140"/>
</g>
<defs>
<filter id="filter0_dd_29229_6819" x="0" y="1" width="78" height="67.5062" filterUnits="userSpaceOnUse" color-interpolation-filters="sRGB">
<feFlood flood-opacity="0" result="BackgroundImageFix"/>
<feColorMatrix in="SourceAlpha" type="matrix" values="0 0 0 0 0 0 0 0 0 0 0 0 0 0 0 0 0 0 127 0" result="hardAlpha"/>
<feOffset dy="11"/>
<feGaussianBlur stdDeviation="11.5"/>
<feComposite in2="hardAlpha" operator="out"/>
<feColorMatrix type="matrix" values="0 0 0 0 0.121569 0 0 0 0 0.172549 0 0 0 0 0.215686 0 0 0 0.13 0"/>
<feBlend mode="normal" in2="BackgroundImageFix" result="effect1_dropShadow_29229_6819"/>
<feColorMatrix in="SourceAlpha" type="matrix" values="0 0 0 0 0 0 0 0 0 0 0 0 0 0 0 0 0 0 127 0" result="hardAlpha"/>
<feOffset dy="4"/>
<feGaussianBlur stdDeviation="2"/>
<feComposite in2="hardAlpha" operator="out"/>
<feColorMatrix type="matrix" values="0 0 0 0 0 0 0 0 0 0 0 0 0 0 0 0 0 0 0.12 0"/>
<feBlend mode="normal" in2="effect1_dropShadow_29229_6819" result="effect2_dropShadow_29229_6819"/>
<feBlend mode="normal" in="SourceGraphic" in2="effect2_dropShadow_29229_6819" result="shape"/>
</filter>
</defs>
</svg>
