<svg width="25" height="32" viewBox="0 0 25 32" fill="none" xmlns="http://www.w3.org/2000/svg">
<path d="M12.2971 31.334C12.2876 31.334 12.2781 31.334 12.2687 31.334C10.5246 31.3182 9.12183 29.8917 9.13762 28.1461L9.15184 26.5664C9.15184 26.4763 9.15658 26.3847 9.16606 26.2947C9.60365 21.6992 12.6541 18.8826 15.1074 16.6188C15.9384 15.8511 16.7251 15.126 17.3949 14.3693C18.2116 13.4483 19.3964 11.5621 18.15 9.28573C16.714 6.65706 13.207 5.91301 10.482 6.537C7.6353 7.18785 6.58636 9.61905 6.21354 11.0092C5.76174 12.6948 4.02878 13.6948 2.3432 13.2445C0.65763 12.7927 -0.342341 11.0598 0.107883 9.3742C1.36693 4.67134 4.63381 1.3934 9.0697 0.377638C15.0395 -0.985668 21.052 1.42658 23.6917 6.25265C25.8891 10.2715 25.2872 14.987 22.1199 18.5603C21.2399 19.5524 20.3 20.4212 19.3901 21.2601C17.1232 23.3532 15.7061 24.7529 15.466 26.7733L15.4534 28.1998C15.4408 29.9391 14.0285 31.334 12.2971 31.334Z" fill="#D13329"/>
</svg>
