<svg width="83" height="82" viewBox="0 0 83 82" fill="none" xmlns="http://www.w3.org/2000/svg">
<path d="M40.9111 82C37.3209 82 33.7623 81.5329 30.3331 80.6097C15.5557 76.6344 3.985 64.393 0.855617 49.4215C-2.33374 34.1692 3.5526 18.1356 15.8539 8.57385C22.9649 3.04574 31.9333 0 41.1084 0C47.4602 0 53.7679 1.47711 59.3513 4.26878C73.1392 11.1667 82.0476 25.5779 82.0476 40.985C82.0476 53.5562 76.1155 65.6729 66.1797 73.3961C59.0435 78.9448 50.0689 82 40.9111 82ZM41.1099 6.31243C33.3315 6.31243 25.7376 8.88474 19.7298 13.5575C9.319 21.65 4.33534 35.2202 7.03548 48.1291C9.68354 60.7934 19.4725 71.1505 31.9743 74.5134C34.8685 75.2914 37.8764 75.6876 40.9111 75.6876H40.9127C48.6738 75.6876 56.2708 73.1042 62.3071 68.4125C70.7168 61.876 75.7368 51.623 75.7368 40.985C75.7368 27.9483 68.1981 15.7527 56.5296 9.91524C51.8174 7.55913 46.4866 6.31243 41.1099 6.31243Z" fill="#D13329"/>
</svg>
