<svg width="64" height="64" viewBox="0 0 64 64" fill="none" xmlns="http://www.w3.org/2000/svg">
<circle cx="32" cy="32" r="32" fill="#FFF6EB"/>
<path fill-rule="evenodd" clip-rule="evenodd" d="M42.453 40.2575C42.453 44.6521 36.4263 45.1601 31.8943 45.1601L31.57 45.1598C28.6826 45.1528 21.333 44.9705 21.333 40.2308C21.333 35.9258 27.1175 35.3505 31.615 35.3288L32.2186 35.3284C35.1059 35.3354 42.453 35.5177 42.453 40.2575ZM31.8943 37.3281C26.213 37.3281 23.333 38.3041 23.333 40.2308C23.333 42.1748 26.213 43.1601 31.8943 43.1601C37.5743 43.1601 40.453 42.1841 40.453 40.2575C40.453 38.3135 37.5743 37.3281 31.8943 37.3281ZM31.8943 18.6663C35.7983 18.6663 38.973 21.8423 38.973 25.7463C38.973 29.6503 35.7983 32.8249 31.8943 32.8249H31.8517C27.9557 32.8129 24.7997 29.6356 24.813 25.7423C24.813 21.8423 27.989 18.6663 31.8943 18.6663ZM31.8943 20.5703C29.0397 20.5703 26.717 22.8916 26.717 25.7463C26.7077 28.5916 29.013 30.9116 31.8557 30.9223L31.8943 31.8743V30.9223C34.7477 30.9223 37.069 28.5996 37.069 25.7463C37.069 22.8916 34.7477 20.5703 31.8943 20.5703Z" fill="#FE970F"/>
</svg>
